<svg width="97" height="59" viewBox="0 0 97 59" fill="none" xmlns="http://www.w3.org/2000/svg">
    <g id="logo">
        <path d="M41.5999 29L50.5199 29L50.5199 26.46L44.3199 26.46L44.3199 14.6L41.5999 14.6L41.5999 29ZM56.5803 29.3C57.6603 29.3 58.6103 29.06 59.4303 28.58C60.2569 28.0933 60.9003 27.4233 61.3603 26.57C61.8269 25.71 62.0603 24.72 62.0603 23.6C62.0603 22.4867 61.8303 21.5033 61.3703 20.65C60.9103 19.79 60.2669 19.1167 59.4403 18.63C58.6203 18.1433 57.6669 17.9 56.5803 17.9C55.5136 17.9 54.5703 18.14 53.7503 18.62C52.9303 19.1 52.2869 19.77 51.8203 20.63C51.3536 21.4833 51.1203 22.4733 51.1203 23.6C51.1203 24.7133 51.3469 25.7 51.8003 26.56C52.2603 27.4133 52.9003 28.0833 53.7203 28.57C54.5403 29.0567 55.4936 29.3 56.5803 29.3ZM56.5803 26.76C55.7336 26.76 55.0903 26.4767 54.6503 25.91C54.2169 25.3367 54.0003 24.5667 54.0003 23.6C54.0003 22.66 54.2069 21.9 54.6203 21.32C55.0403 20.7333 55.6936 20.44 56.5803 20.44C57.4403 20.44 58.0869 20.7267 58.5203 21.3C58.9603 21.8733 59.1803 22.64 59.1803 23.6C59.1803 24.5267 58.9636 25.2867 58.5303 25.88C58.1036 26.4667 57.4536 26.76 56.5803 26.76ZM68.1393 29.3C68.646 29.3 69.1126 29.24 69.5393 29.12C69.9726 29 70.366 28.83 70.7193 28.61L70.7193 29.7C70.7326 30.1 70.6293 30.4333 70.4093 30.7C70.196 30.9733 69.9093 31.1767 69.5493 31.31C69.1893 31.45 68.806 31.52 68.3993 31.52C68.0193 31.52 67.666 31.4367 67.3393 31.27C67.0193 31.1033 66.7726 30.86 66.5993 30.54L64.0793 31.76C64.4926 32.46 65.0826 33.0233 65.8493 33.45C66.616 33.8833 67.4593 34.1 68.3793 34.1C69.1726 34.1 69.9093 33.9933 70.5893 33.78C71.2693 33.5733 71.8426 33.2567 72.3093 32.83C72.7826 32.4033 73.106 31.86 73.2793 31.2C73.3393 30.9667 73.3793 30.73 73.3993 30.49C73.426 30.2567 73.4393 30.0067 73.4393 29.74L73.4393 18.2L71.0593 18.2L71.0593 18.8C70.6926 18.5133 70.276 18.2933 69.8093 18.14C69.3493 17.98 68.8393 17.9 68.2793 17.9C67.246 17.9 66.346 18.1467 65.5793 18.64C64.8126 19.1333 64.216 19.81 63.7893 20.67C63.3693 21.5233 63.1593 22.5 63.1593 23.6C63.1593 24.68 63.366 25.65 63.7793 26.51C64.1993 27.37 64.7826 28.05 65.5293 28.55C66.276 29.05 67.146 29.3 68.1393 29.3ZM68.5793 26.88C67.9926 26.88 67.5126 26.7333 67.1393 26.44C66.766 26.1467 66.4893 25.7533 66.3093 25.26C66.1293 24.76 66.0393 24.2067 66.0393 23.6C66.0393 23 66.1326 22.4533 66.3193 21.96C66.506 21.46 66.7926 21.0633 67.1793 20.77C67.5726 20.47 68.0726 20.32 68.6793 20.32C69.5326 20.32 70.1426 20.6233 70.5093 21.23C70.876 21.83 71.0593 22.62 71.0593 23.6C71.0593 24.58 70.8726 25.3733 70.4993 25.98C70.1326 26.58 69.4926 26.88 68.5793 26.88ZM80.5998 29.3C81.6798 29.3 82.6298 29.06 83.4498 28.58C84.2764 28.0933 84.9198 27.4233 85.3798 26.57C85.8464 25.71 86.0798 24.72 86.0798 23.6C86.0798 22.4867 85.8498 21.5033 85.3898 20.65C84.9298 19.79 84.2864 19.1167 83.4598 18.63C82.6398 18.1433 81.6864 17.9 80.5998 17.9C79.5331 17.9 78.5898 18.14 77.7698 18.62C76.9498 19.1 76.3064 19.77 75.8398 20.63C75.3731 21.4833 75.1398 22.4733 75.1398 23.6C75.1398 24.7133 75.3664 25.7 75.8198 26.56C76.2798 27.4133 76.9198 28.0833 77.7398 28.57C78.5598 29.0567 79.5131 29.3 80.5998 29.3ZM80.5998 26.76C79.7531 26.76 79.1098 26.4767 78.6698 25.91C78.2364 25.3367 78.0198 24.5667 78.0198 23.6C78.0198 22.66 78.2264 21.9 78.6398 21.32C79.0598 20.7333 79.7131 20.44 80.5998 20.44C81.4598 20.44 82.1064 20.7267 82.5398 21.3C82.9798 21.8733 83.1998 22.64 83.1998 23.6C83.1998 24.5267 82.9831 25.2867 82.5498 25.88C82.1231 26.4667 81.4731 26.76 80.5998 26.76ZM91.2828 29L94.0028 29L94.0028 23.06L100.443 23.06L100.443 29L103.163 29L103.163 14.6L100.443 14.6L100.443 20.52L94.0028 20.52L94.0028 14.6L91.2828 14.6L91.2828 29ZM110.49 29.3C111.53 29.3 112.487 29.0267 113.36 28.48C114.24 27.9333 114.884 27.1667 115.29 26.18L112.57 25.4C112.157 26.3067 111.41 26.76 110.33 26.76C109.59 26.76 109.007 26.5533 108.58 26.14C108.16 25.7267 107.9 25.1333 107.8 24.36L115.38 24.36C115.494 23.0533 115.36 21.9167 114.98 20.95C114.6 19.9833 114.014 19.2333 113.22 18.7C112.427 18.1667 111.464 17.9 110.33 17.9C109.264 17.9 108.32 18.1433 107.5 18.63C106.68 19.11 106.037 19.7867 105.57 20.66C105.104 21.5333 104.87 22.56 104.87 23.74C104.87 24.82 105.107 25.78 105.58 26.62C106.06 27.4533 106.72 28.11 107.56 28.59C108.407 29.0633 109.384 29.3 110.49 29.3ZM110.45 20.26C111.104 20.26 111.604 20.4233 111.95 20.75C112.304 21.0767 112.53 21.6067 112.63 22.34L107.87 22.34C108.157 20.9533 109.017 20.26 110.45 20.26ZM117.138 29L119.878 29L119.878 23.48C119.878 22.2267 120.372 21.3733 121.358 20.92C121.678 20.7667 122.035 20.6767 122.428 20.65C122.828 20.6167 123.178 20.6467 123.478 20.74L123.478 18.2C122.992 18.14 122.505 18.1533 122.018 18.24C121.532 18.32 121.092 18.48 120.698 18.72C120.445 18.8667 120.222 19.0433 120.028 19.25C119.842 19.4567 119.678 19.6867 119.538 19.94L119.538 18.2L117.138 18.2L117.138 29ZM129.705 29.3C130.745 29.3 131.702 29.0267 132.575 28.48C133.455 27.9333 134.098 27.1667 134.505 26.18L131.785 25.4C131.372 26.3067 130.625 26.76 129.545 26.76C128.805 26.76 128.222 26.5533 127.795 26.14C127.375 25.7267 127.115 25.1333 127.015 24.36L134.595 24.36C134.708 23.0533 134.575 21.9167 134.195 20.95C133.815 19.9833 133.228 19.2333 132.435 18.7C131.642 18.1667 130.678 17.9 129.545 17.9C128.478 17.9 127.535 18.1433 126.715 18.63C125.895 19.11 125.252 19.7867 124.785 20.66C124.318 21.5333 124.085 22.56 124.085 23.74C124.085 24.82 124.322 25.78 124.795 26.62C125.275 27.4533 125.935 28.11 126.775 28.59C127.622 29.0633 128.598 29.3 129.705 29.3ZM129.665 20.26C130.318 20.26 130.818 20.4233 131.165 20.75C131.518 21.0767 131.745 21.6067 131.845 22.34L127.085 22.34C127.372 20.9533 128.232 20.26 129.665 20.26Z"
              fill="#DEDEDE"/>
        <path d="M11.3938 35.4538L17.7277 17.2308H22.6108L14.0123 42H8.81077L0.212308 17.2308H5.09538L11.3938 35.4538Z"
              fill="#DEDEDE"/>
        <path d="M17.6061 7.39234L11.2722 25.6154L6.38917 25.6154L14.9876 0.84619L20.1892 0.846191L28.7876 25.6154L23.9046 25.6154L17.6061 7.39234Z"
              fill="#DEDEDE"/>
    </g>

    <g id="github-header">
        <path fill-rule="evenodd" clip-rule="evenodd"
              d="M15 0C6.7125 0 0 6.7125 0 15C0 21.6375 4.29375 27.2437 10.2563 29.2313C11.0063 29.3625 11.2875 28.9125 11.2875 28.5188C11.2875 28.1625 11.2688 26.9813 11.2688 25.725C7.5 26.4188 6.525 24.8062 6.225 23.9625C6.05625 23.5312 5.325 22.2 4.6875 21.8438C4.1625 21.5625 3.4125 20.8687 4.66875 20.85C5.85 20.8313 6.69375 21.9375 6.975 22.3875C8.325 24.6562 10.4812 24.0187 11.3438 23.625C11.475 22.65 11.8688 21.9937 12.3 21.6187C8.9625 21.2437 5.475 19.95 5.475 14.2125C5.475 12.5813 6.05625 11.2313 7.0125 10.1813C6.8625 9.80625 6.3375 8.26875 7.1625 6.20625C7.1625 6.20625 8.41875 5.8125 11.2875 7.74375C12.4875 7.40625 13.7625 7.2375 15.0375 7.2375C16.3125 7.2375 17.5875 7.40625 18.7875 7.74375C21.6562 5.79375 22.9125 6.20625 22.9125 6.20625C23.7375 8.26875 23.2125 9.80625 23.0625 10.1813C24.0188 11.2313 24.6 12.5625 24.6 14.2125C24.6 19.9688 21.0938 21.2437 17.7563 21.6187C18.3 22.0875 18.7688 22.9875 18.7688 24.3937C18.7688 26.4 18.75 28.0125 18.75 28.5188C18.75 28.9125 19.0312 29.3813 19.7812 29.2313C22.759 28.2259 25.3465 26.3121 27.1796 23.7592C29.0127 21.2063 29.9991 18.1429 30 15C30 6.7125 23.2875 0 15 0Z"
              fill="#666666"/>
    </g>

    <g id="github-black">
        <path fill-rule="evenodd" clip-rule="evenodd"
              d="M15 0C6.7125 0 0 6.7125 0 15C0 21.6375 4.29375 27.2437 10.2563 29.2313C11.0063 29.3625 11.2875 28.9125 11.2875 28.5188C11.2875 28.1625 11.2688 26.9813 11.2688 25.725C7.5 26.4188 6.525 24.8062 6.225 23.9625C6.05625 23.5312 5.325 22.2 4.6875 21.8438C4.1625 21.5625 3.4125 20.8687 4.66875 20.85C5.85 20.8313 6.69375 21.9375 6.975 22.3875C8.325 24.6562 10.4812 24.0187 11.3438 23.625C11.475 22.65 11.8688 21.9937 12.3 21.6187C8.9625 21.2437 5.475 19.95 5.475 14.2125C5.475 12.5813 6.05625 11.2313 7.0125 10.1813C6.8625 9.80625 6.3375 8.26875 7.1625 6.20625C7.1625 6.20625 8.41875 5.8125 11.2875 7.74375C12.4875 7.40625 13.7625 7.2375 15.0375 7.2375C16.3125 7.2375 17.5875 7.40625 18.7875 7.74375C21.6562 5.79375 22.9125 6.20625 22.9125 6.20625C23.7375 8.26875 23.2125 9.80625 23.0625 10.1813C24.0188 11.2313 24.6 12.5625 24.6 14.2125C24.6 19.9688 21.0938 21.2437 17.7563 21.6187C18.3 22.0875 18.7688 22.9875 18.7688 24.3937C18.7688 26.4 18.75 28.0125 18.75 28.5188C18.75 28.9125 19.0312 29.3813 19.7812 29.2313C22.759 28.2259 25.3465 26.3121 27.1796 23.7592C29.0127 21.2063 29.9991 18.1429 30 15C30 6.7125 23.2875 0 15 0Z"
              fill="#A7A7A7"/>
    </g>

    <g id="twitter">
        <path d="M16.875 1.875C8.59152 1.875 1.875 8.59152 1.875 16.875C1.875 25.1585 8.59152 31.875 16.875 31.875C25.1585 31.875 31.875 25.1585 31.875 16.875C31.875 8.59152 25.1585 1.875 16.875 1.875ZM24.0837 13.1819C24.0937 13.3393 24.0937 13.5033 24.0937 13.6641C24.0937 18.5792 20.3504 24.2411 13.51 24.2411C11.4007 24.2411 9.44531 23.6283 7.79799 22.5737C8.09933 22.6071 8.38728 22.6205 8.69531 22.6205C10.4364 22.6205 12.0368 22.0312 13.3125 21.0335C11.6786 21 10.3058 19.9286 9.83705 18.4554C10.4096 18.5391 10.9252 18.5391 11.5145 18.3884C10.6732 18.2175 9.91699 17.7605 9.37438 17.0953C8.83178 16.43 8.53623 15.5973 8.53795 14.7388V14.692C9.03013 14.9699 9.60938 15.1406 10.2154 15.1641C9.70595 14.8245 9.28814 14.3645 8.99903 13.8249C8.70993 13.2852 8.55845 12.6825 8.55804 12.0703C8.55804 11.3772 8.73884 10.7444 9.06362 10.1953C9.99744 11.3449 11.1627 12.2851 12.4837 12.9548C13.8047 13.6245 15.2518 14.0088 16.731 14.0826C16.2054 11.5547 18.0938 9.50893 20.3638 9.50893C21.4353 9.50893 22.3996 9.95759 23.0792 10.6808C23.9196 10.5234 24.7232 10.2087 25.4397 9.78683C25.1618 10.6473 24.5792 11.3739 23.8058 11.8326C24.5558 11.7522 25.279 11.5446 25.9487 11.2533C25.4431 11.9967 24.8103 12.6562 24.0837 13.1819Z"
              fill="#666666"/>
    </g>

    <g id="telegram">
        <path d="M32.1586 0.340967L1.1503 12.5808C-0.0975299 13.1508 -0.519581 14.2923 0.8487 14.9118L8.80368 17.4995L28.0378 5.33177C29.088 4.5679 30.1632 4.77159 29.238 5.6119L12.7185 20.9224L12.1996 27.4017C12.6802 28.4021 13.5603 28.4068 14.1216 27.9095L18.692 23.4829L26.5195 29.4827C28.3375 30.5844 29.3267 29.8734 29.7179 27.8541L34.852 2.96937C35.3851 0.483814 34.476 -0.611346 32.1586 0.340967Z"
              fill="white"/>
    </g>

    <g id="instagram">
        <path d="M15.6516 2.09998H5.34844C3.55687 2.09998 2.1 3.55628 2.1 5.34715V8.77799V15.6528C2.1 17.4437 3.55687 18.9 5.34844 18.9H15.6516C17.4431 18.9 18.9 17.4437 18.9 15.6528V8.77143V5.34058C18.8934 3.55628 17.4366 2.09998 15.6516 2.09998ZM16.5834 4.03516H16.9575V4.40251V6.88217L14.1159 6.88873L14.1094 4.04172L16.5834 4.03516ZM8.09812 8.77143C8.63625 8.03016 9.50906 7.53816 10.4934 7.53816C11.4778 7.53816 12.3506 8.0236 12.8887 8.77143C13.2431 9.25687 13.4466 9.85382 13.4466 10.4967C13.4466 12.1236 12.1209 13.4552 10.4869 13.4552C8.85281 13.4552 7.54031 12.1236 7.54031 10.4967C7.54031 9.85382 7.75031 9.25687 8.09812 8.77143ZM17.2594 15.6462C17.2594 16.5318 16.5375 17.2534 15.6516 17.2534H5.34844C4.4625 17.2534 3.74062 16.5318 3.74062 15.6462V8.77143H6.2475C6.03094 9.30279 5.90625 9.88662 5.90625 10.4967C5.90625 13.0288 7.96687 15.0887 10.5 15.0887C13.0331 15.0887 15.0937 13.0288 15.0937 10.4967C15.0937 9.88662 14.9691 9.30279 14.7525 8.77143H17.2594V15.6462Z"
              fill="#7572D5"/>
    </g>

    <g id="email-black">
        <path fill-rule="evenodd" clip-rule="evenodd"
              d="M11.4664 0.143066C5.47257 0.143066 0.609619 5.00602 0.609619 10.9999C0.609619 16.9938 5.47257 21.8567 11.4664 21.8567C17.4485 21.8567 22.3233 16.9938 22.3233 10.9999C22.3233 5.00602 17.4485 0.143066 11.4664 0.143066ZM18.6374 5.14715C19.9741 6.77508 20.7138 8.81124 20.7336 10.9176C20.4278 10.8587 17.3662 10.2345 14.2811 10.6235C14.2096 10.4697 14.1508 10.305 14.0802 10.1404C13.8883 9.68748 13.6844 9.23978 13.4686 8.79776C16.8831 7.40809 18.4374 5.40681 18.6374 5.14715ZM11.4664 1.74535C13.8215 1.74535 15.9765 2.62747 17.6132 4.07595C17.4485 4.31118 16.0471 6.18398 12.7503 7.41985C11.2303 4.62965 9.54749 2.34429 9.28784 1.99144C10.002 1.82469 10.7331 1.7418 11.4664 1.74445V1.74535ZM7.52179 2.61571C7.76879 2.94594 9.41721 5.24215 10.9598 7.97355C6.62611 9.12799 2.79908 9.10446 2.38742 9.10446C2.98817 6.23103 4.93154 3.84072 7.52179 2.61571ZM2.18748 11.0116V10.7294C2.58827 10.7411 7.08571 10.7999 11.7143 9.41027C11.9849 9.92868 12.2318 10.4579 12.4671 10.9881C12.3495 11.0234 12.2201 11.0587 12.1025 11.094C7.32185 12.6365 4.77773 16.8517 4.56602 17.2055C3.03468 15.5059 2.1873 13.2993 2.18748 11.0116ZM11.4664 20.2788C9.32312 20.2788 7.34537 19.5487 5.77927 18.3246C5.94394 17.9826 7.82759 14.3555 13.0561 12.5307C13.0796 12.5189 13.0922 12.5189 13.1149 12.5072C14.4222 15.8864 14.9515 18.7245 15.0935 19.537C13.9744 20.0201 12.7503 20.2788 11.4664 20.2788ZM16.6361 18.6892C16.542 18.1238 16.0471 15.4159 14.8339 12.0829C17.7426 11.6242 20.2858 12.3778 20.6043 12.4837C20.2035 15.0621 18.7197 17.2878 16.6361 18.6892Z"
              fill="#959595"/>
    </g>

    <g id="viber-black">
        <path fill-rule="evenodd" clip-rule="evenodd"
              d="M15.7559 13.155C15.4863 13.0202 14.1645 12.3706 13.9184 12.2801C13.6723 12.1905 13.4932 12.1462 13.3132 12.4158C13.134 12.6836 12.6192 13.2898 12.4627 13.4689C12.3053 13.649 12.1488 13.6707 11.8801 13.5368C11.6113 13.4011 10.7446 13.1179 9.71774 12.2023C8.91886 11.4894 8.37874 10.6091 8.22222 10.3394C8.0657 10.0707 8.20503 9.92508 8.33983 9.79118C8.46107 9.67085 8.60854 9.47724 8.74334 9.32072C8.87815 9.16329 8.92248 9.05111 9.01205 8.87107C9.10252 8.69193 9.05729 8.53541 8.98943 8.40061C8.92248 8.2658 8.38507 6.94217 8.1607 6.40386C7.94265 5.88002 7.72099 5.95149 7.55633 5.94244C7.39891 5.93521 7.21977 5.9334 7.04064 5.9334C6.8615 5.9334 6.57017 6.00035 6.32409 6.26996C6.07709 6.53866 5.38316 7.18917 5.38316 8.51279C5.38316 9.83551 6.3458 11.1139 6.48061 11.2939C6.61541 11.4731 8.37602 14.1891 11.073 15.3535C11.7154 15.6303 12.2157 15.7959 12.6056 15.9189C13.2498 16.1243 13.8361 16.0954 14.2993 16.0257C14.815 15.9488 15.8898 15.3752 16.1142 14.7473C16.3377 14.1194 16.3377 13.5811 16.2707 13.4689C16.2038 13.3567 16.0246 13.2898 15.755 13.155H15.7559ZM10.8505 19.8527H10.8468C9.24496 19.853 7.67248 19.4224 6.29423 18.606L5.96853 18.4124L2.58301 19.3008L3.48684 16.0004L3.27423 15.662C2.37867 14.2364 1.90473 12.5866 1.90718 10.9031C1.90899 5.9723 5.92057 1.96071 10.8541 1.96071C13.2426 1.96071 15.4881 2.89259 17.1764 4.58263C18.0091 5.41189 18.6691 6.39804 19.1182 7.48402C19.5673 8.57 19.7966 9.73425 19.7929 10.9094C19.791 15.8402 15.7795 19.8527 10.8505 19.8527ZM18.4611 3.29881C17.4642 2.29539 16.2782 1.49978 14.9716 0.958088C13.665 0.416391 12.264 0.139378 10.8496 0.143103C4.91994 0.143103 0.0922828 4.96986 0.0904733 10.9022C0.0895686 12.7985 0.584458 14.6496 1.52629 16.2808L0 21.8567L5.70344 20.3603C7.28118 21.2199 9.04923 21.6703 10.8459 21.6703H10.8505C16.7801 21.6703 21.6077 16.8436 21.6096 10.9103C21.6139 9.49649 21.3379 8.0958 20.7975 6.7893C20.2571 5.48281 19.463 4.29644 18.4611 3.29881Z"
              fill="#959595"/>
    </g>

    <g id="linkedin">
        <g clip-path="url(#clip0_2_5677)">
            <path d="M15.0001 0.600098C7.0471 0.600098 0.600098 7.0471 0.600098 15.0001C0.600098 22.9531 7.0471 29.4001 15.0001 29.4001C22.9531 29.4001 29.4001 22.9531 29.4001 15.0001C29.4001 7.0471 22.9531 0.600098 15.0001 0.600098ZM11.4751 20.9686H8.5591V11.5846H11.4751V20.9686ZM9.9991 10.4326C9.0781 10.4326 8.4826 9.7801 8.4826 8.9731C8.4826 8.1496 9.0961 7.5166 10.0366 7.5166C10.9771 7.5166 11.5531 8.1496 11.5711 8.9731C11.5711 9.7801 10.9771 10.4326 9.9991 10.4326ZM22.1251 20.9686H19.2091V15.7681C19.2091 14.5576 18.7861 13.7356 17.7316 13.7356C16.9261 13.7356 16.4476 14.2921 16.2361 14.8276C16.1581 15.0181 16.1386 15.2881 16.1386 15.5566V20.9671H13.2211V14.5771C13.2211 13.4056 13.1836 12.4261 13.1446 11.5831H15.6781L15.8116 12.8866H15.8701C16.2541 12.2746 17.1946 11.3716 18.7681 11.3716C20.6866 11.3716 22.1251 12.6571 22.1251 15.4201V20.9686Z"
                  fill="#666666"/>
        </g>
        <defs>
            <clipPath id="clip0_2_5677">
                <rect width="30" height="30" fill="white"/>
            </clipPath>
        </defs>
    </g>
    <g id="linkedin-black">
        <g clip-path="url(#clip0_2_5860)">
            <path d="M15 0.600098C7.04698 0.600098 0.599976 7.0471 0.599976 15.0001C0.599976 22.9531 7.04698 29.4001 15 29.4001C22.953 29.4001 29.4 22.9531 29.4 15.0001C29.4 7.0471 22.953 0.600098 15 0.600098ZM11.475 20.9686H8.55898V11.5846H11.475V20.9686ZM9.99898 10.4326C9.07798 10.4326 8.48248 9.7801 8.48248 8.9731C8.48248 8.1496 9.09598 7.5166 10.0365 7.5166C10.977 7.5166 11.553 8.1496 11.571 8.9731C11.571 9.7801 10.977 10.4326 9.99898 10.4326ZM22.125 20.9686H19.209V15.7681C19.209 14.5576 18.786 13.7356 17.7315 13.7356C16.926 13.7356 16.4475 14.2921 16.236 14.8276C16.158 15.0181 16.1385 15.2881 16.1385 15.5566V20.9671H13.221V14.5771C13.221 13.4056 13.1835 12.4261 13.1445 11.5831H15.678L15.8115 12.8866H15.87C16.254 12.2746 17.1945 11.3716 18.768 11.3716C20.6865 11.3716 22.125 12.6571 22.125 15.4201V20.9686Z"
                  fill="#A7A7A7"/>
        </g>
        <defs>
            <clipPath id="clip0_2_5860">
                <rect width="30" height="30" fill="white"/>
            </clipPath>
        </defs>
    </g>

    <g id="drawing">
        <g opacity="0.5">
            <path d="M714.509 231.003L597.003 299.867" stroke="#B2B2B2"/>
            <path d="M645.645 113.497L528.139 182.361" stroke="url(#paint0_linear_15_2063)"/>
            <path d="M597.003 299.867L528.139 182.361" stroke="#B2B2B2"/>
            <path d="M714.509 231.003L645.645 113.497" stroke="#B2B2B2"/>
            <path d="M597.003 299.867L440.328 391.686" stroke="#B2B2B2"/>
            <path d="M528.139 182.361L371.464 274.181" stroke="url(#paint1_linear_15_2063)"/>
            <path d="M440.329 391.687L371.464 274.181" stroke="#B2B2B2"/>
            <path d="M597.003 299.867L528.139 182.361" stroke="url(#paint2_linear_15_2063)"/>
            <path d="M97.2837 434.865L214.79 366" stroke="#B2B2B2"/>
            <path d="M166.148 552.37L283.654 483.506" stroke="#B2B2B2"/>
            <path d="M214.79 366L283.654 483.506" stroke="#B2B2B2"/>
            <path d="M97.2837 434.865L166.148 552.37" stroke="#B2B2B2"/>
            <path d="M214.79 366L371.464 274.181" stroke="url(#paint3_linear_15_2063)"/>
            <path d="M283.654 483.506L440.329 391.687" stroke="#B2B2B2"/>
            <path d="M214.79 366L283.654 483.506" stroke="#B2B2B2"/>
            <path d="M440.328 391.687L557.834 322.822" stroke="#B2B2B2"/>
            <path d="M509.193 509.193L626.699 440.328" stroke="#B2B2B2"/>
            <path d="M557.834 322.822L626.699 440.328" stroke="#B2B2B2"/>
            <path d="M557.834 322.822L714.509 231.003" stroke="#B2B2B2"/>
            <path d="M557.834 322.822L626.698 440.328" stroke="#B2B2B2"/>
            <path d="M509.193 509.192L391.687 578.057" stroke="#B2B2B2"/>
            <path d="M440.329 391.686L322.823 460.551" stroke="#B2B2B2"/>
            <path d="M391.687 578.057L322.823 460.551" stroke="#B2B2B2"/>
            <path d="M391.687 578.057L235.012 669.876" stroke="#B2B2B2"/>
            <path d="M322.823 460.551L166.148 552.37" stroke="#B2B2B2"/>
            <path d="M235.013 669.876L166.148 552.37" stroke="url(#paint4_linear_15_2063)"/>
            <path d="M391.687 578.057L322.823 460.551" stroke="#B2B2B2"/>
            <path d="M734.729 534.879L578.054 626.698" stroke="#B2B2B2"/>
            <path d="M665.865 417.373L509.19 509.192" stroke="#B2B2B2"/>
            <path d="M578.054 626.698L509.19 509.192" stroke="#B2B2B2"/>
            <path d="M235.01 669.876L352.515 601.011" stroke="#B2B2B2"/>
            <path d="M303.874 787.382L421.38 718.517" stroke="#B2B2B2"/>
            <path d="M352.516 601.011L421.38 718.517" stroke="#B2B2B2"/>
            <path d="M235.01 669.876L303.874 787.382" stroke="#B2B2B2"/>
            <path d="M352.516 601.011L509.191 509.192" stroke="url(#paint5_linear_15_2063)"/>
            <path d="M421.38 718.517L578.055 626.698" stroke="#B2B2B2"/>
            <path d="M352.516 601.011L421.381 718.517" stroke="#B2B2B2"/>
            <path d="M578.054 626.698L695.56 557.834" stroke="#B2B2B2"/>
            <path d="M646.919 744.204L529.413 813.068" stroke="#B2B2B2"/>
            <path d="M578.054 626.698L460.549 695.562" stroke="#B2B2B2"/>
            <path d="M529.413 813.068L460.549 695.562" stroke="#B2B2B2"/>
            <path d="M529.413 813.068L372.739 904.887" stroke="#B2B2B2"/>
            <path d="M460.549 695.562L303.874 787.382" stroke="#B2B2B2"/>
            <path d="M372.739 904.888L303.874 787.382" stroke="#B2B2B2"/>
            <path d="M529.413 813.068L460.549 695.562" stroke="url(#paint6_linear_15_2063)"/>
        </g>
        <defs>
            <linearGradient id="paint0_linear_15_2063" x1="621.653" y1="107.235" x2="562.831" y2="160.098"
                            gradientUnits="userSpaceOnUse">
                <stop stop-color="#13B0F5"/>
                <stop offset="1" stop-color="#CA24B4"/>
            </linearGradient>
            <linearGradient id="paint1_linear_15_2063" x1="527.723" y1="183.954" x2="427.611" y2="316.567"
                            gradientUnits="userSpaceOnUse">
                <stop stop-color="#E70FAA"/>
                <stop offset="1" stop-color="#13B0F5"/>
            </linearGradient>
            <linearGradient id="paint2_linear_15_2063" x1="603.265" y1="275.875" x2="550.402" y2="217.053"
                            gradientUnits="userSpaceOnUse">
                <stop stop-color="#13B0F5"/>
                <stop offset="1" stop-color="#CA24B4"/>
            </linearGradient>
            <linearGradient id="paint3_linear_15_2063" x1="246.778" y1="374.349" x2="325.208" y2="303.866"
                            gradientUnits="userSpaceOnUse">
                <stop stop-color="#00C0FD"/>
                <stop offset="0.421875" stop-color="#E70FAA"/>
                <stop offset="1" stop-color="#00C0FD"/>
            </linearGradient>
            <linearGradient id="paint4_linear_15_2063" x1="235.013" y1="669.876" x2="134.428" y2="594.956"
                            gradientUnits="userSpaceOnUse">
                <stop stop-color="#8E34FF"/>
                <stop offset="0.494792" stop-color="#CA24B4"/>
                <stop offset="1" stop-color="#8E34FF"/>
            </linearGradient>
            <linearGradient id="paint5_linear_15_2063" x1="392.585" y1="577.866" x2="465.959" y2="479.806"
                            gradientUnits="userSpaceOnUse">
                <stop stop-color="#13B0F5"/>
                <stop offset="0.75" stop-color="#CA24B4"/>
                <stop offset="1" stop-color="#13B0F5"/>
            </linearGradient>
            <linearGradient id="paint6_linear_15_2063" x1="529.413" y1="813.068" x2="428.829" y2="738.149"
                            gradientUnits="userSpaceOnUse">
                <stop stop-color="#13B0F5"/>
                <stop offset="0.0582928" stop-color="#CA24B4"/>
                <stop offset="1" stop-color="#13B0F5"/>
            </linearGradient>
        </defs>
    </g>
    <g id="greensock">
        <path d="M67.365 119.745C65.8012 119.471 64.1812 118.729 63.2625 117.907C62.6388 117.253 62.2829 116.389 62.265 115.485C62.265 114.566 62.7337 113.276 63.4762 111.99C63.9262 111.266 64.2787 110.486 64.53 109.665C64.6875 109.099 65.0175 108.18 65.2725 107.595L65.7225 106.522L65.8387 99.3562C65.8987 95.3924 66.015 91.7212 66.1125 91.1512C66.3675 89.5087 66.795 87.9074 67.3612 86.3474L67.7925 85.3124L67.1662 84.9412C66.6 84.5887 66.1312 84.1012 64.275 81.8924C61.9912 79.1962 58.9837 77.7112 54.7237 77.2049C53.3362 77.0699 51.93 76.9687 50.5237 76.9124C44.2725 76.6199 40.6987 75.3112 37.4775 72.1462C35.0737 69.7837 33.825 67.0274 33.3187 62.9662C32.6362 57.4762 31.875 54.6637 30.4687 52.3799C30.1221 51.8159 29.7228 51.2861 29.2762 50.7974L28.71 50.2312L27.4612 51.0337C26.7787 51.4837 25.8187 52.0499 25.35 52.3049C23.7862 53.1637 22.3012 54.1199 20.8762 55.1549C17.3812 57.6937 13.5712 60.8774 11.4825 62.9662C10.545 63.9037 10.0575 64.3124 9.83998 64.2749C8.41498 64.0612 9.50623 57.8887 11.8312 53.2387C14.8012 47.2424 19.8 41.7149 25.5825 37.9837C30.33 34.9162 38.0062 30.6974 41.5575 29.2124C47.865 26.5762 56.0287 23.7224 61.6162 22.1999C62.79 21.8662 63.51 21.5737 63.9975 21.2437C65.0925 20.4824 66.165 20.1112 67.395 20.0924C68.43 20.0737 68.5275 20.0549 69.525 19.3874C70.6987 18.6262 71.0475 18.5849 72.2212 18.9974L72.9825 19.2712L73.92 18.6262L74.8575 17.9999L76.2037 18.0187C77.2387 18.0374 77.7075 17.9999 78.1575 17.8049C78.7237 17.5499 78.7425 17.5124 78.9 16.5749C79.2525 14.5424 79.29 13.5262 79.0762 12.2962C78.8025 10.6762 78.765 4.38744 79.0387 3.15369C79.3312 1.82619 79.5262 1.55244 80.5237 1.06494C82.0087 0.341191 83.1225 0.127441 85.68 0.127441C88.8037 0.127441 90.3862 0.558691 91.56 1.69119C92.6137 2.70744 92.79 5.08869 92.2425 10.6762C91.9087 13.8974 91.8712 14.7974 91.9687 16.9049C92.0062 18.2512 92.1037 19.5224 92.145 19.6987C92.2237 20.0324 92.3025 20.0512 93.435 20.0699C94.5487 20.0887 94.7437 20.1487 95.7975 20.6962C96.8137 21.2249 97.575 21.8699 97.7325 22.3387C97.7512 22.4362 97.9275 22.4362 98.2387 22.3387C98.8425 22.1624 99.3712 22.3574 99.8025 22.8862C100.057 23.2199 100.211 23.2762 100.8 23.2762C101.602 23.2762 101.895 23.4712 102.559 24.4499C102.869 24.8892 103.295 25.2344 103.789 25.4474C104.884 25.9949 106.369 27.5174 106.935 28.7287C107.812 30.5249 107.989 32.6137 107.441 34.4887C107.246 35.1937 107.246 35.2124 107.655 35.8949C108.514 37.3612 108.829 39.1574 108.476 40.6799L108.281 41.5799L108.866 42.1649C111.776 45.0749 111.345 49.8224 107.794 54.0599C107.397 54.544 107.062 55.0756 106.796 55.6424C106.114 57.4574 105.33 58.7287 104.317 59.7824L103.282 60.8362H102.229C101.175 60.8362 99.69 60.4837 98.79 60.0149C98.4187 59.8199 98.4 59.8199 98.4787 60.0524C98.715 60.9112 99.3 64.4062 99.495 66.3412C99.8062 69.3112 99.7087 73.6274 99.3 75.4837C99.0013 76.8585 98.5008 78.1816 97.815 79.41C97.425 80.0362 97.4062 80.1712 97.4812 80.9324C97.5975 82.005 97.3462 83.8049 96.915 84.9937C96.3862 86.3812 96.1912 87.0262 96.075 87.7274C95.9775 88.3312 95.9775 88.3312 96.4087 88.3312C96.975 88.3312 97.2862 88.6649 97.2862 89.3287C97.2862 89.6212 97.0312 91.2037 96.72 92.8237C95.8612 97.3762 95.8012 97.8824 95.8012 102.296C95.7825 106.849 95.7825 106.807 96.8175 107.49L99.1425 108.994C101.143 110.321 103.285 111.422 105.529 112.275C108.791 113.565 109.241 113.895 109.241 114.99C109.241 115.477 109.144 115.654 108.735 116.044C107.486 117.255 105.022 117.529 100.061 117C97.4832 116.758 94.8955 116.635 92.3062 116.629C85.47 116.531 84.4725 116.295 83.5762 114.596C83.07 113.621 83.1675 112.35 83.8687 110.261C84.18 109.342 84.4537 108.405 84.69 107.449C85.1587 105.184 84.8475 102.487 83.7525 99.4424L82.815 96.8437C81.8962 94.2075 81.39 89.3812 81.9375 88.2899C82.035 88.0762 82.2112 88.035 82.68 88.0537L83.265 88.1137L83.7525 87.0974C84.1237 86.2949 84.5325 85.77 85.6462 84.6562L87.0712 83.2312L86.9925 82.3124C86.9325 81.4349 85.7812 77.1749 85.6237 77.1937C85.5637 77.1937 85.2525 77.6249 84.9 78.1687C84.0412 79.4587 82.1475 81.4499 81.0712 82.1737C80.6025 82.4849 80.2125 82.8562 80.2125 82.9762C80.1937 83.505 79.7437 84.5399 79.1962 85.2599C78.6675 85.9649 78.63 86.0812 78.7087 86.7037C78.8437 87.6224 78.5512 90.5699 78.2025 92.1149C77.8864 93.2621 77.4541 94.3741 76.9125 95.4337C75.5662 98.2274 74.55 100.725 74.295 101.88C74.1108 102.992 73.9931 104.114 73.9425 105.24C73.8825 106.567 73.7475 107.857 73.65 108.131C73.515 108.502 73.515 108.795 73.6312 109.361C73.7287 109.77 73.7887 110.689 73.7662 111.412C73.7475 112.41 73.8262 113.055 74.1187 114.225C74.625 116.216 74.7225 117.469 74.49 118.211C74.3325 118.68 74.1787 118.856 73.65 119.111C72.4762 119.715 69.1575 120.049 67.3612 119.737L67.365 119.745ZM72.1087 118.144C72.7912 117.949 73.38 117.364 73.38 116.835C73.38 116.599 73.185 115.916 72.9487 115.312C72.48 114.161 71.6775 111.112 71.6775 110.606C71.6775 110.351 71.6962 110.332 72.0862 110.546L72.5175 110.782V110.235C72.4549 109.73 72.3431 109.233 72.1837 108.75C71.8125 107.636 71.775 107.617 69.4087 107.479L67.8075 107.4L67.2225 107.966C66.9008 108.297 66.6189 108.665 66.3825 109.061C66.1275 109.567 66.03 110.332 66.1875 110.505C66.225 110.565 66.6187 110.505 67.0462 110.407C67.3 110.332 67.5618 110.287 67.8262 110.272C67.8262 110.291 67.395 110.644 66.8512 111.015C64.5075 112.774 63.6862 113.846 63.6862 115.215C63.6862 116.64 65.0325 117.754 67.1437 118.087C68.5875 118.301 71.4 118.361 72.105 118.147L72.1087 118.144ZM103.886 115.819C104.471 115.114 104.392 114.394 103.65 113.572C103.219 113.141 102.731 112.77 102.184 112.477C101.636 112.185 101.089 111.851 100.541 111.502C99.551 110.861 98.5338 110.261 97.4925 109.706C96.5925 109.219 95.715 108.709 94.8562 108.165L94.5037 107.891V102.521C94.5037 97.2299 94.485 97.1512 94.2112 97.2299C92.8425 97.6012 90.5775 97.7775 87.7087 97.7174L84.6037 97.6799L85.0537 98.7749C85.8937 100.845 86.325 103.62 86.325 106.804C86.325 107.996 86.2462 108.424 85.9537 109.264C85.7962 109.672 85.6612 110.085 85.5225 110.494C85.4625 110.67 85.68 110.805 86.4787 111.041C87.0637 111.217 87.9225 111.394 88.4137 111.45L89.3137 111.547L89.2162 112.447C89.1187 113.464 89.235 114.536 89.49 114.87C89.6475 115.065 90.2325 115.144 92.9475 115.26C94.9987 115.357 97.2262 115.571 98.9812 115.826C100.504 116.062 102.146 116.257 102.634 116.257C103.455 116.276 103.534 116.239 103.882 115.826L103.886 115.819ZM72.6187 106.68C72.6975 106.62 72.8137 105.566 72.855 104.317C73.0125 100.822 73.1475 100.312 74.9062 96.3674C76.35 93.1462 77.115 90.1387 77.055 88.0087L77.0175 86.7374L76.47 87.2662C75.3375 88.3987 76.1175 86.6212 77.4675 85.0387C78.4837 83.8274 78.8362 83.1637 78.99 82.0912C79.0687 81.66 79.2262 81.4462 79.89 80.9399C82.3735 79.0639 84.2871 76.5349 85.4175 73.6349C85.6912 72.9299 86.3925 70.5299 86.9812 68.3024C88.0762 64.1812 88.6612 62.4037 89.19 61.6424C89.385 61.3499 89.4637 61.2899 89.4262 61.4849C89.143 62.5323 88.9214 63.5954 88.7625 64.6687C88.605 65.6249 88.3125 67.4999 88.1175 68.8087C87.7462 71.4862 87.3562 73.2037 86.8275 74.5312L86.475 75.4312L87.4125 77.8537C88.3875 80.3324 88.8375 82.1324 88.9162 83.8687L88.9762 84.8437L88.215 85.0012C87.2102 85.179 86.3136 85.7396 85.7137 86.5649C85.05 87.5212 84.6787 88.3049 84.855 88.4774C84.9337 88.5562 85.89 88.7324 86.985 88.8674C88.6837 89.0624 89.3287 89.0624 91.575 88.9274C92.55 88.8899 93.51 88.7924 94.4662 88.6537C94.68 88.575 94.8975 88.1474 95.2462 87.0337C96.0487 84.4762 96.2025 83.5762 96.105 81.7799L96.0262 80.1974L96.435 79.6687C97.3912 78.4575 98.1337 76.2712 98.445 73.7099C98.8162 70.5862 98.1337 64.0424 96.8625 58.4174C96.2587 55.7399 96.0037 54.1387 96.0037 52.9687V51.9337L95.0475 52.0312C91.6087 52.4024 87.45 52.3049 84.9112 51.7762C83.5237 51.5024 80.0287 50.4674 79.2675 50.1337L78.6637 49.8599L78.585 50.5424C78.525 50.9137 78.4687 51.2849 78.39 51.6749C78.2737 52.0837 78.3112 52.1812 79.035 52.8862C79.935 53.8049 80.2087 54.2737 80.2087 54.8962C80.2087 55.2862 79.995 55.6012 78.9 56.7337C78.1149 57.5715 77.2438 58.3244 76.3012 58.9799L75.03 59.8387L74.4825 61.7324C72.5287 68.6662 72.1575 74.9737 73.4475 79.4849L73.7587 80.6174L73.1325 81.3974C70.7887 84.3449 69.4012 86.5912 69.1875 87.8437C69.0625 88.4604 68.9187 89.0732 68.7562 89.6812C68.25 91.6162 67.8562 94.4474 67.6837 97.5149C67.5635 100.083 67.3948 102.648 67.1775 105.21L67.08 105.971L68.055 106.264C68.6025 106.44 69.4237 106.635 69.8925 106.714C70.77 106.849 72.3937 106.811 72.645 106.676L72.6187 106.68ZM91.5825 95.9362C93.105 95.8387 94.4925 95.6024 94.7662 95.3699C94.8825 95.2912 95.0212 94.8824 95.0587 94.4699L95.1562 93.7274L93.945 94.0012C92.9887 94.1962 92.0325 94.3124 91.0725 94.3912C88.7662 94.4887 86.445 94.4287 84.1575 94.1962C83.3962 94.0799 83.3962 94.0799 83.6287 95.0737C83.8237 95.8162 83.865 95.8537 85.8562 95.9924C87.1837 96.1087 89.04 96.09 91.5787 95.9324L91.5825 95.9362ZM90.3112 92.5387C92.3025 92.3624 94.785 91.9349 95.2725 91.6799C95.43 91.6012 95.565 91.3087 95.625 90.9749L95.8012 89.9399L95.8987 89.4524L95.4112 89.5499C93.2437 89.9999 91.6012 90.1349 88.32 90.1349C85.1175 90.1349 84.7462 90.1162 83.9062 89.8237C83.5834 89.6876 83.2397 89.6077 82.89 89.5874C82.755 89.6662 82.7325 90.7799 82.8525 91.5599C82.9312 92.0287 83.01 92.1074 83.4787 92.2424C84.9637 92.6512 87.465 92.7487 90.315 92.5162L90.3112 92.5387ZM54.0637 74.9212C59.0625 73.4774 65.6062 69.2362 70.9575 63.9262C72.6975 62.1862 72.9112 61.9537 73.1437 61.1737L73.455 60.1762C73.4925 60.0974 73.1812 59.9624 72.7725 59.8649C71.7 59.6099 70.8787 58.9874 70.8787 58.4212C70.8787 58.0874 70.6837 57.7574 70.1175 57.1499C69.1987 56.1149 68.9662 55.6649 68.8687 54.6712L68.79 53.8687L67.695 53.0887C67.0687 52.6387 64.8825 51.4274 62.5575 50.2574C60.7872 49.3938 59.0544 48.4555 57.3637 47.4449C55.41 46.1362 54.1012 44.5724 53.3587 42.7199C53.2237 42.3487 53.0475 42.0374 52.9875 42.0374C52.83 42.0374 48.435 46.2749 46.56 48.2662C41.9325 53.1487 38.7487 57.3862 36.735 61.3124C36.2287 62.2874 35.6812 63.4424 35.5237 63.8699L35.2312 64.6499L35.5837 65.9587C35.7975 66.6637 36.2475 67.8149 36.6 68.4974C37.83 70.9199 39.2962 72.3824 41.7187 73.575C44.3175 74.8649 46.62 75.3149 50.4675 75.255C52.5375 75.2362 53.145 75.1762 54.06 74.9025L54.0637 74.9212ZM14.61 57.7912C17.8912 54.8812 22.4212 51.6974 27.9712 48.3974C31.605 46.2299 45.6487 39.1987 52.1137 36.3262C53.2875 35.7974 54.3412 35.3099 54.4575 35.2537C54.5737 35.1749 54.9075 34.3349 55.2187 33.3974C56.5875 29.0624 57.27 28.2037 59.7487 27.6374C60.06 27.5587 60.1387 27.4612 60.1387 27.1499C60.1387 26.5837 60.5287 25.2749 60.8625 24.6899C61.1175 24.2399 61.1175 24.2212 60.9 24.2812C60.765 24.3187 59.9437 24.5549 59.085 24.8099C47.1712 28.2487 36.7612 32.8162 27.7762 38.5199C18.1875 44.6137 12.66 51.9187 11.0587 60.6674L10.9425 61.3124L12.1162 60.1612C12.7425 59.5162 13.875 58.4624 14.6175 57.8174L14.61 57.7912ZM102.99 59.4524C103.946 58.9649 105.431 56.7187 105.979 54.9412C106.136 54.3149 106.447 53.7299 106.897 53.2424C108.341 51.6412 109.534 48.7312 109.552 46.7399C109.552 43.6349 107.794 42.4424 105.236 43.7699C104.902 43.9274 104.632 44.0437 104.591 44.0062C104.456 43.8712 105.176 43.1662 106.057 42.6187C107.209 41.8574 107.426 41.4074 107.426 39.7874C107.443 38.478 107.054 37.1955 106.312 36.1162C105.96 35.5874 105.825 35.2387 105.881 35.0212L106.234 33.7124C106.721 31.9724 106.545 29.9812 105.784 28.7137C104.651 26.8012 103.264 25.8637 101.329 25.7062L100.196 25.6274L100.86 26.3699C102.832 28.4999 103.789 31.1737 103.399 33.4612C103.204 34.6349 103.027 34.8674 101.895 35.3174L101.231 35.5912L101.31 36.4912C101.445 37.9574 101.194 39.0299 100.256 41.0024C99.7875 41.9999 99.435 42.8962 99.4762 42.9937C99.5925 43.3274 100.882 43.9499 101.899 44.2049L102.896 44.4412L102.27 44.6549C101.449 44.9099 101.272 45.2812 101.272 46.6274C101.272 47.8574 101.449 48.3674 102.345 49.7137C102.754 50.2987 103.027 50.9062 103.069 51.2549C103.147 51.8024 103.129 51.8399 102.679 51.9974C102.169 52.1406 101.644 52.2261 101.115 52.2524C99.2775 52.3687 99.1425 52.4287 98.3212 53.2087C97.5787 53.9137 97.56 53.9512 97.56 54.7312C97.56 55.8037 97.9687 57.9749 98.2237 58.2674C98.5575 58.6199 100.41 59.5387 101.134 59.6737C101.758 59.8304 102.418 59.7544 102.99 59.4599V59.4524ZM75.9375 57.9899C77.13 57.0524 78.0675 56.1149 78.5925 55.3124C78.9262 54.8249 78.945 54.7274 78.7875 54.3149C78.5137 53.6887 76.7175 52.0687 75.72 51.5812C75.0553 51.2834 74.3522 51.0802 73.6312 50.9774L72.4012 50.8199L71.64 49.8637C70.0575 47.9099 69.18 46.3874 67.9275 43.4362C66.8325 40.9349 65.8762 39.4724 64.3537 38.0249C63.7275 37.4399 63.2812 36.9524 63.3187 36.9524C63.3975 36.9524 64.14 37.3237 64.9987 37.7737C66.4237 38.5349 66.6 38.5949 67.245 38.4974C69.57 38.2237 71.6212 35.5499 72.3637 31.7999C72.5775 30.7462 73.0087 29.6699 73.4587 29.0249C73.4775 29.0062 74.3775 29.5912 75.4312 30.3524C78.1087 32.2462 78.6937 32.5387 80.2162 32.5987C81.2137 32.6362 81.78 32.5612 83.5762 32.1299C87.405 31.1924 91.545 30.8212 94.065 31.1549C95.49 31.3499 97.5412 31.9762 99.0637 32.6962C100.567 33.4012 100.86 33.4387 101.347 33.0074C101.756 32.6549 101.756 32.5987 101.756 31.2899C101.737 29.3549 101.032 27.2662 99.96 26.0174C99.4125 25.3724 97.8712 24.3187 96.345 23.5162C95.8024 23.2284 95.2624 22.9359 94.725 22.6387C94.0012 22.2074 93.1837 22.2674 90.9562 22.8524C88.3762 23.5162 87.6937 23.5162 84.7462 22.7549C82.245 22.1287 82.0912 22.1099 79.6275 22.4999C78.3187 22.6949 75.0375 22.5787 73.9425 22.2862C73.395 22.1287 72.8475 21.9749 72.3225 21.7799C71.3662 21.4087 69.705 21.3487 68.2012 21.6224C65.2125 22.1512 62.9475 23.7712 62.1262 25.9762C61.695 27.0899 61.755 27.6187 62.3212 27.9674C63.2212 28.5337 64.41 30.0787 64.41 30.6824C64.41 30.7199 64.1175 30.4687 63.7837 30.1162C62.9437 29.2387 62.1825 28.8449 61.2825 28.8449C60.7002 28.8611 60.134 29.0396 59.6476 29.3603C59.1613 29.681 58.7742 30.1311 58.53 30.6599C58.2672 31.35 58.0455 32.0549 57.8662 32.7712C57.3187 34.7624 56.8312 35.8199 55.7962 37.2262C54.8775 38.4974 54.7425 39.0637 55.0725 40.4887C55.8937 44.0812 57.3187 45.5287 63.2737 48.9074C66.3975 50.6849 67.9987 51.6824 69.1725 52.5599C70.0725 53.2237 70.0912 53.2649 70.0125 53.7712C69.8362 54.9449 70.5787 56.2124 72.045 57.2474C72.4162 57.5024 72.6487 57.7762 72.6487 57.9712C72.6487 58.3237 73.6462 58.8112 74.3662 58.8112C74.775 58.8112 75.09 58.6349 75.93 57.9899H75.9375ZM100.02 51.4049C102.285 51.4837 102.401 51.3074 101.194 49.9012C99.9225 48.4349 99.5737 47.2462 100.042 45.9374L100.237 45.4312L99.435 45.0412C99.1612 44.9062 98.8875 44.7674 98.6137 44.6699C98.4787 45.1987 98.34 45.7049 98.2237 46.2337C97.9312 47.4262 97.5787 50.5124 97.56 51.8212C97.56 51.9374 97.755 51.8999 98.0887 51.6862C98.5575 51.4124 98.7937 51.3749 100.024 51.4124L100.02 51.4049ZM92.4225 51.2887C93.7912 51.2099 95.1975 51.1124 95.5687 51.0524L96.2512 50.9549L96.33 48.7087C96.4462 45.5062 96.915 43.6124 98.3025 40.5824C99.2775 38.4337 99.7087 36.5587 99.495 35.1524C99.4162 34.5487 99.3787 34.5074 98.5575 34.1549C97.0537 33.5578 95.4876 33.1314 93.8887 32.8837C92.3475 32.6699 87.8137 32.7862 86.115 33.1199C85.41 33.2362 84.1237 33.5099 83.265 33.7237C81.135 34.2112 80.0025 34.1549 78.3825 33.4499C76.7812 32.7449 75.765 32.1037 74.8087 31.2037C74.0475 30.4987 73.9687 30.4612 73.7737 30.6974C73.6162 30.8737 73.5375 31.4024 73.4812 32.5349C73.4212 34.2749 73.1475 35.1899 72.3862 36.4199C72.2171 36.673 72.0727 36.9417 71.955 37.2224C71.955 37.2824 72.54 37.9649 73.2637 38.7074C75.765 41.3062 76.995 41.9699 78.9675 41.8312C79.6125 41.7712 80.0625 41.7937 80.0625 41.8687C80.0625 42.0262 78.7912 43.0199 78.2662 43.2937C78.0112 43.4287 77.955 43.5674 77.9925 43.8599L78.3037 45.9112C78.48 47.0849 78.615 47.6287 78.7912 47.7862C79.26 48.1762 81.6825 49.4287 83.205 50.0512C85.1962 50.8537 86.2912 51.1462 87.8137 51.2812C89.6887 51.4387 89.7262 51.4387 92.4225 51.2812V51.2887ZM76.2712 49.1399C76.3087 49.0799 76.1737 47.9474 75.9187 46.6387C75.6075 44.8612 75.4312 44.2162 75.2362 44.0399C75.1012 43.9237 74.3775 43.4137 73.6537 42.8887C72.7028 42.2049 71.8018 41.4542 70.9575 40.6424L69.6112 39.3149L68.8875 39.6862L68.1262 40.0949C68.1903 40.4 68.295 40.6952 68.4375 40.9724C68.6512 41.4412 69.0825 42.5924 69.3937 43.5299C70.215 45.9712 70.86 47.1449 72.48 49.2712L73.0837 50.0737L74.235 50.2499C74.88 50.3474 75.525 50.4862 75.7012 50.5424C75.975 50.6587 76.0125 50.6024 76.0912 49.9762C76.1287 49.7024 76.1887 49.4099 76.2675 49.1362L76.2712 49.1399ZM101.017 24.8437C102.015 24.7462 102.191 24.6074 101.76 24.1612C101.486 23.8874 100.86 23.8687 100.354 24.1012C100.02 24.2587 99.945 24.2174 99.4162 23.6512C98.8687 23.0474 98.8312 23.0249 98.145 23.1037C97.5187 23.1824 97.4212 23.1637 97.3425 22.9087C97.0986 22.4898 96.7955 22.1084 96.4425 21.7762C95.9989 21.2722 95.4443 20.8781 94.8225 20.6249C93.6112 20.1562 92.9287 20.2162 91.7737 20.8612C88.4325 22.6762 88.5712 22.6574 85.3462 21.8362C82.3387 21.0749 80.0925 20.2949 79.3687 19.8037C78.765 19.3949 77.475 18.9449 76.3987 18.8062C75.5962 18.6899 75.09 18.8662 74.3287 19.4887L73.92 19.8224L74.2912 20.4674C74.7975 21.3674 74.7412 21.4237 73.98 20.7599C73.1587 20.0774 72.1837 19.6087 71.5575 19.5862C71.1075 19.5862 69.78 20.1712 69.6225 20.4262C69.5625 20.5049 69.975 20.6024 70.5225 20.6399C71.0887 20.6999 71.8687 20.8949 72.3975 21.1087C73.7662 21.6937 74.4675 21.8887 75.7162 22.0087C77.085 22.1437 79.5637 21.9899 79.8562 21.7537C80.0137 21.6187 80.4412 21.5962 81.3412 21.6749C82.5337 21.7537 83.0212 21.8699 85.8525 22.6312C87.495 23.0812 88.6462 23.0399 90.6 22.5149C91.5 22.2599 92.6325 22.0087 93.1012 21.9487C93.9037 21.8699 94.0575 21.9112 95.31 22.4774C97.3012 23.3774 98.3587 23.9437 98.9437 24.4687C99.5287 24.9749 99.6075 24.9749 101.014 24.8587L101.017 24.8437ZM89.8837 21.4274L91.0762 20.8012L91.0387 19.5899C91.02 18.7499 90.9787 17.9287 90.9412 17.1112L90.8437 15.8624L89.6512 16.7812C88.9462 17.3287 88.2637 17.7374 87.9712 17.7974C87.1125 17.9549 82.875 17.7974 82.4812 17.5837C81.9567 17.1962 81.4661 16.7646 81.015 16.2937L79.92 15.1799L79.9012 15.8437C79.9012 16.1962 79.8637 16.7999 79.785 17.1712C79.6875 17.8762 79.6875 17.8949 80.4487 18.8512C80.8575 19.3799 81.1912 19.8487 81.1912 19.9049C81.1912 20.2762 86.835 22.0349 88.1062 22.0537C88.515 22.0537 89.025 21.8774 89.8837 21.4274ZM87.6187 16.9912C89.025 16.7174 89.7075 15.7012 90.2362 13.1249C90.7837 10.3499 91.0575 5.99619 90.8025 4.13994C90.5662 2.45994 88.6912 1.71744 85.1175 1.83369C82.89 1.91244 81.9712 2.12619 81.21 2.77119C80.7412 3.16119 80.7412 3.20244 80.5275 5.05494C80.1375 8.60994 80.7225 13.6687 81.7387 15.5624C82.2262 16.4812 82.6575 16.8112 83.5537 16.9687C84.57 17.1449 86.7375 17.1449 87.615 16.9874L87.6187 16.9912Z"
              fill="white"/>
    </g>
    <g id="tailwind">
        <path d="M36.8438 56.0844C40.6646 40.8011 50.2167 33.1594 65.5 33.1594C88.425 33.1594 91.2906 50.3532 102.753 53.2188C110.395 55.1292 117.081 52.2636 122.812 44.6219C118.992 59.9053 109.44 67.5469 94.1562 67.5469C71.2313 67.5469 68.3656 50.3532 56.9031 47.4875C49.2615 45.5771 42.575 48.4428 36.8438 56.0844ZM8.1875 90.4719C12.0083 75.1886 21.5604 67.5469 36.8438 67.5469C59.7687 67.5469 62.6344 84.7407 74.0969 87.6063C81.7385 89.5167 88.425 86.6511 94.1562 79.0094C90.3354 94.2928 80.7833 101.934 65.5 101.934C42.575 101.934 39.7094 84.7407 28.2469 81.875C20.6052 79.9646 13.9187 82.8303 8.1875 90.4719Z"
              fill="#44A8B3"/>

    </g>
    <g id="webstorm">
        <defs>
            <linearGradient id="deviconWebstorm0" x1="38.88" x2="63.72" y1="6.5" y2="95.94"
                            gradientTransform="rotate(.104) scale(1.21905)" gradientUnits="userSpaceOnUse">
                <stop offset=".28" stop-color="#07c3f2"/>
                <stop offset=".94" stop-color="#087cfa"/>
            </linearGradient>
            <linearGradient id="deviconWebstorm1" x1="46.63" x2="88.66" y1="17.85" y2="79.48"
                            gradientTransform="rotate(.104) scale(1.21905)" gradientUnits="userSpaceOnUse">
                <stop offset=".14" stop-color="#fcf84a"/>
                <stop offset=".37" stop-color="#07c3f2"/>
            </linearGradient>
            <linearGradient id="deviconWebstorm2" x1="88.27" x2="93.79" y1="25.47" y2="45.02"
                            gradientTransform="rotate(.104) scale(1.21905)" gradientUnits="userSpaceOnUse">
                <stop offset=".28" stop-color="#07c3f2"/>
                <stop offset=".94" stop-color="#087cfa"/>
            </linearGradient>
        </defs>
        <path fill="url(#deviconWebstorm0)"
              d="M21.262 111.25L5.484 17.75L34.656 5.645l18.63 11.07l17.066-9.207l35.558 13.656l-19.94 101.352Zm0 0"/>
        <path fill="url(#deviconWebstorm1)"
              d="M122.516 45.117L107.41 7.813l-27.402-2.33L37.707 46.13L49.09 98.512l21.262 14.91l52.164-30.953l-12.801-24.004Zm0 0"/>
        <path fill="url(#deviconWebstorm2)" d="m99.07 39.559l10.645 18.906l12.8-13.348l-9.398-23.234Zm0 0"/>
        <path d="M27.43 27.43h73.14v73.14H27.43Zm0 0"/>
        <path fill="#fff"
              d="M36.547 86.746h27.43v4.574h-27.43Zm25.965-50.21L58.43 52.538l-4.668-16.004h-4.645L44.434 52.54l-4.07-16.004H33.96l7.84 27.442h5.144L51.43 48.09l4.437 15.887h5.207l7.828-27.442Zm7.535 23.526l3.57-4.277a12.625 12.625 0 0 0 8.219 3.34c2.437 0 3.973-.977 3.973-2.598v-.074c0-1.535-.95-2.316-5.547-3.496c-5.547-1.414-9.117-2.953-9.117-8.414v-.086c0-4.984 4.007-8.289 9.628-8.289a15.85 15.85 0 0 1 10.215 3.5l-3.144 4.559a12.877 12.877 0 0 0-7.156-2.707c-2.317 0-3.536 1.062-3.536 2.437v.086c0 1.805 1.22 2.437 5.938 3.66c5.582 1.461 8.73 3.461 8.73 8.262v.074c0 5.461-4.172 8.535-10.11 8.535a17.48 17.48 0 0 1-11.663-4.402"/>
    </g>

    <g id="html">
        <path d="M22.1323 102.004L13.7061 7.5H106.294L97.856 101.989L59.9436 112.5L22.1323 102.004Z" fill="#E44F26"/>
        <path d="M60 104.468L90.6375 95.9738L97.845 15.2288H60V104.468Z" fill="#F1662A"/>
        <path d="M60 50.2762H44.6625L43.605 38.4075H60V26.8162H30.9375L31.215 29.9287L34.0613 61.8675H60V50.2762ZM60 80.3775L59.9475 80.3925L47.04 76.9087L46.215 67.665H34.5787L36.2025 85.86L59.9475 92.4525L60 92.4375V80.3775Z"
              fill="#EBEBEB"/>
        <path d="M59.959 50.2762V61.8675H74.2315L72.889 76.9012L59.959 80.3887V92.4487L83.7227 85.86L83.8952 83.9025L86.6177 53.3887L86.9027 50.2762H59.959ZM59.959 26.8162V38.4075H87.9565L88.189 35.805L88.7177 29.9287L88.9952 26.8162H59.959Z"
              fill="white"/>
    </g>

    <g id="css">
        <path d="M22.1325 101.154L13.71 7.4375H106.29L97.8562 101.139L59.9437 111.562L22.1325 101.154Z" fill="#1572B6"/>
        <path d="M60 103.597L90.6375 95.174L97.845 15.1019H60V103.597Z" fill="#33A9DC"/>
        <path d="M60 49.054H75.3375L76.395 37.2842H60V25.7896H89.0625L88.785 28.8724L85.9387 60.5487H60V49.054Z"
              fill="white"/>
        <path d="M60.0711 78.9045L60.0186 78.9193L47.1112 75.4609L46.2862 66.2942H34.6499L36.2737 84.3413L60.0149 90.8788L60.0711 90.864V78.9045Z"
              fill="#EBEBEB"/>
        <path d="M74.3513 60.0615L72.9563 75.4534L60.03 78.9119V90.8714L83.79 84.3412L83.9663 82.4001L85.98 60.0615H74.3513Z"
              fill="white"/>
        <path d="M60.0411 25.7896V37.2842H32.0436L31.8111 34.6997L31.2824 28.8724L31.0049 25.7896H60.0411ZM59.9999 49.054V60.5487H47.2536L47.0211 57.9642L46.4961 52.1369L46.2186 49.054H59.9999Z"
              fill="#EBEBEB"/>
    </g>

    <g id="js">
        <path d="M7.5 7.5H112.5V112.5H7.5V7.5Z" fill="#F5DE19"/>
        <path d="M78.0338 89.5312C78.9284 91.3485 80.3183 92.8759 82.0434 93.9375C83.7684 94.9991 85.7584 95.5515 87.7838 95.5313C91.8713 95.5313 94.485 93.4875 94.485 90.6562C94.485 87.2812 91.8 86.0738 87.3 84.105L84.8325 83.0475C77.7075 80.0138 72.9825 76.215 72.9825 68.1825C72.9825 60.7838 78.6075 55.1475 87.4313 55.1475C90.2877 54.9412 93.1416 55.5805 95.637 56.9856C98.1324 58.3907 100.159 60.4994 101.464 63.0488L93.75 67.98C93.2476 66.716 92.3728 65.6345 91.2416 64.879C90.1105 64.1236 88.7764 63.7298 87.4163 63.75C86.8229 63.6906 86.2236 63.7555 85.6567 63.9404C85.0897 64.1254 84.5675 64.4265 84.1234 64.8244C83.6792 65.2224 83.3228 65.7085 83.0769 66.2518C82.831 66.7951 82.7009 67.3837 82.695 67.98C82.695 70.9388 84.5288 72.1388 88.7625 73.98L91.23 75.0375C99.615 78.6338 104.355 82.2975 104.355 90.5363C104.355 99.42 97.3763 104.287 88.005 104.287C84.3537 104.52 80.713 103.691 77.5223 101.901C74.3317 100.11 71.7274 97.4342 70.0238 94.1963L78.0338 89.5312ZM43.1775 90.3863C44.7263 93.135 46.1363 95.46 49.5263 95.46C52.7663 95.46 54.8138 94.1925 54.8138 89.2612V55.71H64.68V89.3925C64.68 99.6075 58.68 104.257 49.9463 104.257C46.8591 104.426 43.7931 103.657 41.1513 102.051C38.5096 100.444 36.4157 98.0761 35.145 95.2575L43.1775 90.3863Z"
              fill="black"/>
    </g>

    <g id="react">
        <g clip-path="url(#clip0_2_5687)">
            <path d="M92.9055 32.7027C91.703 32.2887 90.4903 31.9051 89.2686 31.5523C89.4738 30.7106 89.6627 29.8792 89.8304 29.0623C92.5837 15.6483 90.7838 4.84178 84.6359 1.28375C78.7415 -2.12722 69.1015 1.42949 59.3658 9.93342C58.4063 10.773 57.4681 11.6368 56.552 12.524C55.9388 11.934 55.3148 11.3556 54.6802 10.7888C44.4766 1.69616 34.2492 -2.13608 28.108 1.43215C22.2188 4.85374 20.4749 15.0127 22.9537 27.7254C23.2003 28.9844 23.4787 30.237 23.7887 31.4819C22.341 31.8947 20.9441 32.3342 19.6072 32.8019C7.64431 36.9881 0.00463867 43.5483 0.00463867 50.3529C0.00463867 57.3808 8.20617 64.43 20.666 68.7043C21.6762 69.0495 22.6947 69.3692 23.7208 69.6634C23.3875 71.0042 23.0917 72.354 22.8336 73.7114C20.4705 86.2035 22.3159 96.1223 28.1892 99.5222C34.2554 103.033 44.4369 99.4247 54.3505 90.7268C55.1544 90.0196 55.9406 89.2925 56.7083 88.546C57.7003 89.5066 58.7188 90.4393 59.7626 91.343C69.3659 99.6365 78.85 102.985 84.7176 99.5762C90.7781 96.055 92.7479 85.3995 90.1906 72.4356C89.9891 71.42 89.7632 70.4094 89.5131 69.4047C90.2281 69.1921 90.9299 68.9732 91.614 68.7455C104.567 64.4384 112.995 57.4747 112.995 50.3529C112.995 43.5234 105.109 36.919 92.9055 32.7027ZM90.0961 64.1474C89.4782 64.3525 88.8444 64.5505 88.1982 64.7432C86.7682 60.1995 84.8385 55.3684 82.4768 50.3764C84.7304 45.5036 86.5859 40.734 87.9758 36.22C89.1317 36.5558 90.2533 36.9097 91.3346 37.2832C101.791 40.8961 108.168 46.2372 108.168 50.3529C108.168 54.7367 101.28 60.4277 90.0961 64.1474ZM85.4556 73.3765C86.5864 79.1087 86.7475 84.2916 85.9985 88.3435C85.3258 91.9844 83.9726 94.4115 82.2989 95.3839C78.7384 97.4526 71.1234 94.7637 62.9109 87.6706C61.94 86.8305 60.9926 85.9634 60.0698 85.0703C63.2538 81.5756 66.4356 77.5131 69.5411 73.0008C75.0035 72.5144 80.164 71.7188 84.8438 70.6331C85.0693 71.5426 85.2732 72.4573 85.4556 73.3765ZM38.5256 95.0264C35.0467 96.2592 32.2758 96.2946 30.6008 95.3254C27.0368 93.2624 25.5551 85.298 27.5761 74.6151C27.8164 73.3527 28.0914 72.0972 28.401 70.8502C33.0292 71.8779 38.1522 72.6168 43.6274 73.0624C46.7541 77.4776 50.0277 81.5358 53.327 85.0894C52.6258 85.7703 51.9081 86.4338 51.1744 87.0793C46.7903 90.9252 42.3973 93.654 38.5256 95.0264ZM22.2276 64.1204C16.718 62.2302 12.1679 59.7738 9.04919 57.0933C6.24649 54.6848 4.8319 52.2932 4.8319 50.3529C4.8319 46.2234 10.9656 40.9564 21.1961 37.3766C22.4377 36.9425 23.7371 36.5327 25.0855 36.1482C26.4996 40.7641 28.3543 45.5904 30.5924 50.4707C28.3251 55.4233 26.444 60.3267 25.0162 64.997C24.0796 64.7278 23.1498 64.4355 22.2276 64.1204ZM27.6909 26.7947C25.5674 15.9031 26.9776 7.68706 30.5267 5.62497C34.3066 3.42867 42.6652 6.56011 51.4754 14.4115C52.0499 14.9247 52.6151 15.4482 53.1707 15.9819C49.8878 19.52 46.6442 23.548 43.5453 27.9371C38.2312 28.4315 33.1444 29.2253 28.4677 30.2889C28.1795 29.131 27.9205 27.9661 27.6909 26.7951V26.7947ZM76.43 38.8739C75.3254 36.9589 74.1797 35.0679 72.9939 33.2024C76.599 33.66 80.0532 34.2673 83.2968 35.0098C82.3232 38.1425 81.1094 41.4175 79.6807 44.7753C78.6364 42.7867 77.5526 40.8191 76.43 38.8739ZM56.5542 19.4443C58.7805 21.8652 61.0103 24.5678 63.2035 27.5003C58.7545 27.2894 54.298 27.2886 49.849 27.4977C52.0443 24.5922 54.2931 21.8931 56.5542 19.4443ZM36.5509 38.9071C35.4424 40.8367 34.3788 42.792 33.3612 44.7713C31.9558 41.4255 30.7531 38.1355 29.7711 34.9584C32.9948 34.2346 36.4326 33.6427 40.0148 33.1935C38.8158 35.0704 37.6608 36.9754 36.5509 38.9067V38.9071ZM40.1176 67.8569C36.4168 67.4423 32.9273 66.881 29.7044 66.1767C30.7019 62.9429 31.9311 59.5829 33.3669 56.1653C34.3886 58.1461 35.4566 60.1026 36.5699 62.033C37.7148 64.0176 38.9003 65.9614 40.1176 67.8569ZM56.6875 81.6027C54.3995 79.1255 52.1176 76.3848 49.8891 73.4372C52.0527 73.5222 54.2582 73.5656 56.5 73.5656C58.803 73.5656 61.0796 73.5138 63.3204 73.4137C61.1202 76.4145 58.8988 79.1592 56.6875 81.6027ZM79.7262 55.9907C81.2365 59.446 82.5094 62.7883 83.5202 65.9667C80.2443 66.7171 76.7072 67.3214 72.9803 67.7701C74.1745 65.8699 75.331 63.9461 76.449 61.9998C77.5857 60.0214 78.6783 58.0179 79.7262 55.9907ZM72.2679 59.5794C70.5563 62.5634 68.7486 65.4909 66.8474 68.357C63.4037 68.6018 59.9523 68.7234 56.5 68.7216C52.9836 68.7216 49.5634 68.6118 46.2699 68.3974C44.3191 65.5378 42.4769 62.6053 40.747 59.6059H40.7475C39.0258 56.6225 37.4176 53.5745 35.9264 50.4685C37.4138 47.3618 39.0171 44.3124 40.7329 41.3267L40.7325 41.3271C42.4476 38.3407 44.2752 35.4206 46.2112 32.5734C49.5713 32.3182 53.0171 32.1853 56.4995 32.1853H56.5C59.9983 32.1853 63.4484 32.3195 66.8077 32.5765C68.7242 35.4195 70.5401 38.3295 72.252 41.301C73.9735 44.2801 75.598 47.3147 77.123 50.3999C75.6137 53.5166 73.9943 56.5783 72.2679 59.5794ZM82.2252 5.48056C86.0086 7.67067 87.4801 16.5024 85.1029 28.0842C84.9511 28.8231 84.7807 29.5757 84.5953 30.339C79.9071 29.2528 74.8168 28.4452 69.4873 27.9433C66.3827 23.506 63.1655 19.4717 59.936 15.9792C60.7824 15.1604 61.6489 14.3628 62.5348 13.5871C70.8767 6.30141 78.673 3.42468 82.2252 5.48056ZM56.5 40.2263C62.0723 40.2263 66.5897 44.7603 66.5897 50.3529C66.5897 55.9456 62.0723 60.4795 56.5 60.4795C50.9277 60.4795 46.4102 55.9456 46.4102 50.3529C46.4102 44.7603 50.9277 40.2263 56.5 40.2263Z"
                  fill="#00D8FF"/>
        </g>
        <defs>
            <clipPath id="clip0_2_5687">
                <rect width="113" height="101" fill="white"/>
            </clipPath>
        </defs>
    </g>

    <g id="redux">
        <path d="M72.6971 69.5627C76.5688 69.1619 79.5061 65.8242 79.3725 61.8184C79.2393 57.8131 75.9012 54.6086 71.8959 54.6086H71.6291C67.4897 54.7422 64.2856 58.2135 64.4193 62.3525C64.5529 64.3553 65.3537 66.091 66.5553 67.2926C62.016 76.2385 55.0734 82.7807 44.6594 88.2549C37.5832 91.9934 30.2402 93.3287 22.8971 92.3943C16.8889 91.593 12.216 88.923 9.27827 84.5164C5.00614 77.9742 4.60573 70.8975 8.21065 63.8213C10.7475 58.7475 14.7525 55.009 17.2893 53.1398C16.7553 51.4041 15.9541 48.4668 15.5537 46.3307C-3.80574 60.35 -1.80287 79.3094 4.07172 88.2549C8.47745 94.9311 17.4229 99.0701 27.3029 99.0701C29.9729 99.0701 32.643 98.8029 35.3135 98.1357C52.4033 94.7975 65.3541 84.65 72.6971 69.5627ZM96.1955 53.0066C86.0483 41.1234 71.0951 34.5811 54.0053 34.5811H51.8693C50.6676 32.1779 48.1307 30.5754 45.327 30.5754H45.0598C40.9213 30.709 37.7172 34.1803 37.8504 38.3197C37.984 42.325 41.3217 45.5295 45.327 45.5295H45.5938C48.5311 45.3959 51.068 43.5266 52.1361 40.9898H54.5393C64.6865 40.9898 74.2992 43.927 82.9779 49.6684C89.6533 54.0746 94.4598 59.816 97.1299 66.7586C99.3996 72.3664 99.266 77.8406 96.8627 82.5139C93.1246 89.5902 86.8496 93.4623 78.5717 93.4623C73.2311 93.4623 68.1578 91.8598 65.4873 90.6582C64.0188 91.9934 61.3484 94.1295 59.4791 95.4652C65.2205 98.1352 71.0951 99.6041 76.7025 99.6041C89.5197 99.6041 98.9992 92.5275 102.604 85.4512C106.476 77.707 106.209 64.3553 96.1955 53.0066ZM28.3709 71.832C28.5045 75.8377 31.8422 79.0418 35.8475 79.0418H36.1147C40.2537 78.9086 43.4578 75.4369 43.3242 71.2979C43.191 67.2922 39.8529 64.0881 35.8475 64.0881H35.5807C35.3135 64.0881 34.9127 64.0881 34.6463 64.2213C29.1721 55.1422 26.9025 45.2623 27.7037 34.5807C28.2373 26.5697 30.9078 19.6266 35.5807 13.8852C39.4525 8.94508 46.9291 6.5418 52.0029 6.40861C66.1549 6.14139 72.1627 23.7656 72.5635 30.8422C74.2992 31.2426 77.2365 32.1775 79.2393 32.8451C77.6369 11.2156 64.2856 0 51.4688 0C39.4524 0 28.3709 8.67869 23.9647 21.4963C17.8234 38.5865 21.8287 55.009 29.3053 67.9602C28.6381 68.8947 28.2373 70.3635 28.3709 71.8324V71.832Z"
              fill="#764ABC"/>
    </g>

    <g id="bootstrap">
        <g clip-path="url(#clip0_2_5691)">
            <path d="M0 75.7821C0 81.9781 5.08028 87 11.3468 87H76.6528C82.9204 87 88 81.9774 88 75.7821V11.2182C88 5.02187 82.9197 0 76.6532 0H11.3472C5.07959 0 0 5.02255 0 11.2179V75.7818V75.7821Z"
                  fill="#563D7C"/>
            <path d="M36.4919 38.4832V26.1629H47.4613C48.5063 26.1629 49.5135 26.2489 50.4836 26.4212C51.4536 26.5931 52.312 26.9003 53.0583 27.3431C53.8042 27.786 54.4013 28.4007 54.8492 29.1875C55.2968 29.9746 55.5209 30.9829 55.5209 32.2121C55.5209 34.4255 54.8492 36.0241 53.5058 37.0076C52.1628 37.9915 50.4464 38.4832 48.3568 38.4832H36.4919ZM24.7759 17.1621V69.8379H50.5956C52.9837 69.8379 55.3095 69.5429 57.5731 68.9526C59.8367 68.3623 61.8514 67.4525 63.6176 66.223C65.3834 64.9934 66.789 63.407 67.8337 61.4645C68.8787 59.5216 69.4008 57.2222 69.4008 54.5663C69.4008 51.2709 68.5923 48.4553 66.9757 46.1192C65.3587 43.7828 62.9084 42.1474 59.6249 41.2129C62.0129 40.0819 63.8166 38.6307 65.0355 36.8601C66.2541 35.0895 66.8636 32.8765 66.8636 30.2203C66.8636 27.7612 66.4532 25.6956 65.6323 24.0232C64.8114 22.3512 63.6547 21.0108 62.1621 20.0025C60.6699 18.9942 58.879 18.2686 56.7893 17.8262C54.7 17.3833 52.3866 17.1621 49.8493 17.1621H24.7759ZM36.4919 60.8371V46.3771H49.2523C51.7895 46.3771 53.8293 46.9548 55.3717 48.111C56.9138 49.2668 57.6851 51.1971 57.6851 53.9023C57.6851 55.2797 57.4486 56.4107 56.976 57.296C56.5033 58.1813 55.8691 58.8823 55.073 59.3986C54.2772 59.9151 53.3566 60.2839 52.312 60.5054C51.267 60.7263 50.1728 60.8371 49.0285 60.8371H36.4919Z"
                  fill="white"/>
        </g>
        <defs>
            <clipPath id="clip0_2_5691">
                <rect width="88" height="87" fill="white"/>
            </clipPath>
        </defs>
    </g>

    <g id="sass">
        <g clip-path="url(#clip0_2_5689)">
            <path d="M100.673 50.0766C96.603 50.0975 93.0653 51.0694 90.1035 52.5063C89.0162 50.3721 87.9295 48.4708 87.738 47.076C87.5246 45.4493 87.2691 44.4561 87.5246 42.5122C87.7805 40.5683 88.9312 37.8001 88.9098 37.589C88.8887 37.3778 88.6538 36.3846 86.3098 36.3637C83.9658 36.3424 81.9413 36.8073 81.7068 37.42C81.4724 38.0326 81.025 39.4273 80.7266 40.8637C80.3216 42.9771 76.0386 50.5198 73.5881 54.471C72.7993 52.9291 72.1174 51.5765 71.968 50.499C71.755 48.8722 71.4991 47.879 71.755 45.9351C72.0109 43.9912 73.1617 41.2235 73.1402 41.0119C73.1187 40.8007 72.8843 39.8075 70.5403 39.7866C68.1958 39.7653 66.1713 40.2302 65.9373 40.8429C65.7029 41.4559 65.4469 42.8923 64.957 44.2871C64.4667 45.6818 58.7769 58.275 57.2852 61.5285C56.6824 62.8453 56.0501 64.1487 55.3886 65.4376C55.3886 65.4376 55.3672 65.501 55.3032 65.6066C55.0954 66.0107 54.8824 66.4122 54.6643 66.811V66.8318C54.3444 67.4028 54.0035 67.9307 53.833 67.9307C53.705 67.9307 53.4706 66.4095 53.8755 64.3387C54.7278 59.9652 56.7524 53.1615 56.7313 52.9291C56.7313 52.8022 57.1148 51.6191 55.4101 51.006C53.7475 50.3934 53.1511 51.4075 53.0017 51.4075C52.8527 51.4075 52.7458 51.7668 52.7458 51.7668C52.7458 51.7668 54.6003 44.118 49.2085 44.118C45.8417 44.118 41.1958 47.7734 38.8943 51.0694C36.278 52.4811 33.6639 53.8968 31.052 55.3166C29.7953 56.0139 28.4951 56.7113 27.2803 57.3661C27.1949 57.2818 27.1099 57.1758 27.0244 57.0915C20.5034 50.1822 8.442 45.3012 8.95339 36.0257C9.14534 32.6449 10.3171 23.7705 32.1178 12.9947C50.0608 4.22583 64.3392 6.65549 66.8111 12.0436C70.3484 19.7349 59.1608 34.0183 40.6204 36.0887C33.5455 36.8708 29.8373 34.1661 28.9 33.152C27.9197 32.0953 27.7703 32.0318 27.4079 32.2435C26.8115 32.5606 27.1949 33.5113 27.4079 34.0605C27.9622 35.4969 30.2422 38.0326 34.0994 39.2796C37.5091 40.378 45.7988 40.991 55.8361 37.1454C67.0666 32.8348 75.8466 20.8546 73.2682 10.8183C70.6893 0.633908 53.641 -2.72556 37.5091 2.95799C27.9197 6.33921 17.52 11.6634 10.0402 18.594C1.15363 26.834 -0.253039 33.997 0.322334 36.9976C2.38984 47.6465 17.2006 54.5771 23.1248 59.7114C22.8263 59.8804 22.5489 60.0286 22.3149 60.1555C19.3526 61.6132 8.05811 67.4658 5.24523 73.6568C2.04891 80.6716 5.75708 85.7009 8.20756 86.3765C15.8154 88.4686 23.6362 84.7076 27.8342 78.4953C32.0323 72.2834 31.5209 64.2119 29.5818 60.5144C29.5604 60.4722 29.5393 60.4296 29.4964 60.3875C30.2637 59.9439 31.052 59.479 31.8194 59.0354C33.2296 58.2088 34.6578 57.4126 36.1029 56.6474C35.3781 58.6126 34.8452 60.958 34.5897 64.3387C34.2698 68.3113 35.9105 73.4665 38.063 75.4947C39.0223 76.3828 40.1515 76.4037 40.8763 76.4037C43.3908 76.4037 44.5205 74.3329 45.7778 71.8819C47.3119 68.8818 48.6971 65.3954 48.6971 65.3954C48.6971 65.3954 46.971 74.8191 51.6595 74.8191C53.3641 74.8191 55.0902 72.6214 55.8575 71.5017V71.5226C55.8575 71.5226 55.9 71.4592 55.9855 71.3114C56.156 71.0368 56.2624 70.8674 56.2624 70.8674V70.8257C56.9443 69.6421 58.4789 66.9587 60.7589 62.5004C63.6998 56.7534 66.5342 49.5696 66.5342 49.5696C66.5342 49.5696 66.7901 51.3232 67.6634 54.239C68.1753 55.9505 69.2401 57.831 70.0929 59.648C69.411 60.5991 68.9846 61.127 68.9846 61.127L69.0061 61.1483C68.4518 61.8665 67.8554 62.6481 67.1945 63.4094C64.8716 66.1558 62.1016 69.3045 61.7178 70.2126C61.2699 71.2901 61.3768 72.0722 62.2296 72.7062C62.8475 73.1711 63.9553 73.234 65.085 73.1711C67.1735 73.0229 68.6437 72.5158 69.3681 72.1991C70.4978 71.7976 71.819 71.1846 73.0548 70.276C75.3352 68.6067 76.72 66.2192 76.5925 63.0714C76.5285 61.3386 75.9531 59.6059 75.2498 57.9787C75.4632 57.6833 75.6547 57.3874 75.8681 57.0915C79.4693 51.8724 82.2612 46.1462 82.2612 46.1462C82.2612 46.1462 82.5171 47.8998 83.3905 50.8161C83.8168 52.2951 84.6907 53.901 85.4575 55.4643C82.0693 58.1903 79.9807 61.3594 79.2349 63.4302C77.8926 67.2759 78.9365 69.0082 80.9185 69.4097C81.8133 69.6 83.092 69.1772 84.0298 68.7757C85.2231 68.3956 86.6297 67.7408 87.9724 66.7684C90.2529 65.0995 92.4474 62.775 92.3195 59.6272C92.2555 58.1903 91.8721 56.7743 91.3392 55.4009C94.2161 54.2182 97.9242 53.563 102.655 54.1122C112.799 55.2953 114.802 61.5706 114.418 64.2123C114.035 66.8531 111.904 68.29 111.201 68.7336C110.497 69.1777 110.263 69.3254 110.327 69.6421C110.412 70.107 110.753 70.0862 111.35 70.0014C112.181 69.8537 116.678 67.8672 116.869 63.0075C117.189 56.7956 111.222 50.0132 100.673 50.0766ZM22.4214 76.2346C19.0542 79.8687 14.3662 81.2421 12.3417 80.0803C10.1681 78.8333 11.0204 73.4665 15.1545 69.6213C17.669 67.2759 20.9083 65.0991 23.0608 63.7683C23.5507 63.4724 24.2755 63.0501 25.1493 62.5217C25.2983 62.437 25.3838 62.3948 25.3838 62.3948L25.8952 62.0776C27.4078 67.5713 25.9591 72.4103 22.4214 76.2346ZM46.9285 59.7114C45.7563 62.543 43.3058 69.7903 41.8141 69.3888C40.5354 69.0508 39.7466 63.5571 41.5582 58.1269C42.4745 55.4009 44.4136 52.147 45.5433 50.8796C47.3759 48.8509 49.4005 48.1744 49.8904 48.9991C50.5087 50.0766 47.6529 57.9365 46.9285 59.7114ZM67.152 69.3041C66.6617 69.5578 66.1932 69.7269 65.9798 69.6C65.8308 69.5153 66.1932 69.1772 66.1932 69.1772C66.1932 69.1772 68.7292 66.473 69.7305 65.2473C70.3063 64.5291 70.9877 63.684 71.7125 62.7329V63.0075C71.7125 66.2405 68.5583 68.4169 67.1516 69.3041H67.152ZM82.7511 65.7756C82.3887 65.5219 82.4527 64.6768 83.6674 62.0355C84.1363 61.0001 85.2441 59.2678 87.1411 57.5985C87.3541 58.2746 87.5035 58.9298 87.4821 59.5424C87.4606 63.6205 84.5202 65.1417 82.7511 65.7756Z"
                  fill="#CD6799"/>
        </g>
        <defs>
            <clipPath id="clip0_2_5689">
                <rect width="117" height="87" fill="white"/>
            </clipPath>
        </defs>
    </g>

    <g id="git">
        <g clip-path="url(#clip0_2_5685)">
            <path d="M103.02 47.8219L57.1758 1.98038C54.5372 -0.6598 50.2552 -0.6598 47.6134 1.98038L38.0937 11.5001L50.1699 23.5763C52.9762 22.6281 56.1943 23.2642 58.4313 25.5012C60.6789 27.7525 61.3106 30.9981 60.3393 33.8134L71.9775 45.452C74.7932 44.482 78.0421 45.1095 80.291 47.3621C83.434 50.5039 83.434 55.596 80.291 58.7399C77.1471 61.8841 72.055 61.8841 68.9095 58.7399C66.5454 56.3733 65.9613 52.9013 67.1582 49.9888L56.3046 39.1352L56.3034 67.6973C57.0902 68.0863 57.8088 68.6002 58.4313 69.2189C61.5743 72.3607 61.5743 77.4532 58.4313 80.5995C55.2874 83.7422 50.1929 83.7422 47.0535 80.5995C43.9105 77.4532 43.9105 72.3611 47.0535 69.2193C47.8067 68.4658 48.7019 67.869 49.6871 67.4635V38.6352C48.7004 38.2324 47.8048 37.6353 47.0535 36.8793C44.6722 34.5013 44.0996 31.0071 45.3198 28.0831L33.4154 16.1775L1.98105 47.6099C-0.660352 50.2525 -0.660352 54.5349 1.98105 57.1755L47.8259 103.018C50.4652 105.658 54.7464 105.658 57.3891 103.018L103.019 57.3884C105.66 54.747 105.66 50.4621 103.019 47.8219"
                  fill="#DE4C36"/>
        </g>
        <defs>
            <clipPath id="clip0_2_5685">
                <rect width="105" height="105" fill="white"/>
            </clipPath>
        </defs>
    </g>

    <g id="github">
        <path fill-rule="evenodd" clip-rule="evenodd"
              d="M44 0C19.69 0 0 19.69 0 44C0 63.47 12.595 79.915 30.085 85.745C32.285 86.13 33.11 84.81 33.11 83.655C33.11 82.61 33.055 79.145 33.055 75.46C22 77.495 19.14 72.765 18.26 70.29C17.765 69.025 15.62 65.12 13.75 64.075C12.21 63.25 10.01 61.215 13.695 61.16C17.16 61.105 19.635 64.35 20.46 65.67C24.42 72.325 30.745 70.455 33.275 69.3C33.66 66.44 34.815 64.515 36.08 63.415C26.29 62.315 16.06 58.52 16.06 41.69C16.06 36.905 17.765 32.945 20.57 29.865C20.13 28.765 18.59 24.255 21.01 18.205C21.01 18.205 24.695 17.05 33.11 22.715C36.63 21.725 40.37 21.23 44.11 21.23C47.85 21.23 51.59 21.725 55.11 22.715C63.525 16.995 67.21 18.205 67.21 18.205C69.63 24.255 68.09 28.765 67.65 29.865C70.455 32.945 72.16 36.85 72.16 41.69C72.16 58.575 61.875 62.315 52.085 63.415C53.68 64.79 55.055 67.43 55.055 71.555C55.055 77.44 55 82.17 55 83.655C55 84.81 55.825 86.185 58.025 85.745C66.7597 82.796 74.3497 77.1822 79.7268 69.6937C85.1039 62.2052 87.9974 53.219 88 44C88 19.69 68.31 0 44 0Z"
              fill="#FFFEFE"/>
    </g>

    <g id="vscode">
        <path d="M101.535 17.605L81.3541 7.88899C80.2144 7.33948 78.932 7.15814 77.6847 7.37011C76.4373 7.58208 75.2868 8.17686 74.3926 9.07199L8.3301 69.3C7.52857 70.0273 7.04878 71.0432 6.99627 72.1243C6.94376 73.2053 7.32283 74.2629 8.0501 75.0645C8.1376 75.159 8.2251 75.25 8.3196 75.334L13.7131 80.234C14.4179 80.8754 15.325 81.2497 16.2771 81.2919C17.2291 81.3341 18.1658 81.0416 18.9246 80.465L98.4971 20.125C99.0981 19.6689 99.8145 19.3897 100.566 19.3186C101.317 19.2476 102.073 19.3877 102.749 19.7231C103.425 20.0585 103.993 20.5758 104.391 21.217C104.789 21.8581 105 22.5975 105 23.352V23.1175C105 21.9656 104.675 20.8372 104.062 19.862C103.449 18.8868 102.573 18.1045 101.535 17.605Z"
              fill="#0065A9"/>
        <path d="M101.535 94.395L81.3541 104.115C80.2141 104.662 78.9321 104.843 77.6851 104.631C76.4381 104.419 75.2876 103.825 74.3926 102.932L8.3301 42.7C7.52857 41.9727 7.04878 40.9568 6.99627 39.8758C6.94376 38.7947 7.32283 37.7371 8.0501 36.9355C8.1376 36.841 8.2251 36.75 8.3196 36.666L13.7131 31.766C14.4186 31.1219 15.3278 30.7459 16.2822 30.7037C17.2366 30.6615 18.1755 30.9557 18.9351 31.535L98.4971 91.875C99.0981 92.3311 99.8145 92.6104 100.566 92.6814C101.317 92.7524 102.073 92.6123 102.749 92.2769C103.425 91.9415 103.993 91.4242 104.391 90.783C104.789 90.1419 105 89.4025 105 88.648V88.9C104.996 90.0488 104.669 91.1733 104.057 92.1451C103.444 93.1168 102.57 93.8965 101.535 94.395Z"
              fill="#007ACC"/>
        <path d="M81.3539 104.114C80.2139 104.662 78.9319 104.843 77.6849 104.631C76.4379 104.419 75.2874 103.825 74.3924 102.931C74.895 103.428 75.5329 103.764 76.226 103.899C76.9192 104.034 77.6368 103.962 78.2889 103.691C78.941 103.42 79.4987 102.963 79.892 102.376C80.2853 101.79 80.4968 101.1 80.4999 100.394V11.606C80.5005 10.8965 80.2905 10.2028 79.8965 9.61274C79.5025 9.02271 78.9423 8.56288 78.2867 8.29152C77.6312 8.02016 76.9098 7.94946 76.2141 8.0884C75.5183 8.22734 74.8795 8.56965 74.3784 9.07197C75.2728 8.17717 76.423 7.58235 77.6702 7.3698C78.9173 7.15724 80.1997 7.33744 81.3399 7.88547L101.517 17.5875C102.559 18.0845 103.438 18.8657 104.054 19.8411C104.67 20.8165 104.998 21.9463 105 23.1V88.9C105 90.0528 104.675 91.1822 104.061 92.1581C103.447 93.134 102.571 93.9167 101.531 94.416L81.3539 104.114Z"
              fill="#1F9CF0"/>
    </g>

    <g id="typescript">
        <path d="M0 60V120H60H120V60V0H60H0V60Z" fill="#007ACC"/>
        <path d="M26.5374 60.3979L26.4993 65.3122H34.3088H42.1184L42.1184 87.5026V109.693H47.6422H53.166V87.5026L53.166 65.3122H60.9755H68.785V60.4931C68.785 57.8264 68.7279 55.5979 68.6517 55.5407C68.5946 55.4645 59.0898 55.4264 47.566 55.4455L26.5946 55.5026L26.5374 60.3979Z"
              fill="white"/>
        <path d="M96.8264 55.3636C99.874 56.1255 102.198 57.4779 104.331 59.6874C105.436 60.8684 107.074 63.0208 107.207 63.535C107.245 63.6874 102.026 67.1922 98.8644 69.1541C98.7502 69.2303 98.293 68.7351 97.7787 67.9731C96.2359 65.7255 94.6168 64.7541 92.1406 64.5827C88.5025 64.335 86.1597 66.2398 86.1787 69.4208C86.1787 70.3541 86.3121 70.9065 86.693 71.6684C87.493 73.3255 88.9787 74.316 93.6454 76.3351C102.236 80.0303 105.912 82.4684 108.198 85.935C110.75 89.8017 111.322 95.9731 109.588 100.564C107.683 105.554 102.96 108.945 96.3121 110.068C94.2549 110.43 89.3787 110.373 87.1692 109.973C82.3502 109.116 77.7787 106.735 74.9597 103.611C73.8549 102.392 71.7025 99.2112 71.8359 98.9827C71.893 98.9065 72.3883 98.6017 72.9406 98.2779C73.474 97.9731 75.493 96.8112 77.3978 95.7065L80.8454 93.7065L81.5692 94.7731C82.5787 96.316 84.7883 98.4303 86.1216 99.135C89.9502 101.154 95.2073 100.868 97.7978 98.5446C98.9025 97.535 99.3597 96.4874 99.3597 94.9446C99.3597 93.5541 99.1883 92.9446 98.4644 91.897C97.5311 90.5636 95.6263 89.4398 90.2168 87.097C84.0263 84.4303 81.3597 82.7731 78.9216 80.1446C77.5121 78.6208 76.1787 76.1827 75.6264 74.1446C75.1692 72.4493 75.0549 68.2017 75.4168 66.4874C76.693 60.5065 81.2073 56.335 87.7216 55.097C89.8359 54.697 94.7502 54.8493 96.8264 55.3636Z"
              fill="white"/>
    </g>

    <g id="styled-components">
        <path d="M4.22402 158.096C3.39202 158.096 2.59202 157.963 1.82402 157.696C1.06669 157.429 0.480019 157.077 0.0640194 156.64L0.528019 155.728C0.933353 156.133 1.47202 156.464 2.14402 156.72C2.81602 156.965 3.50935 157.088 4.22402 157.088C5.22669 157.088 5.97869 156.907 6.48002 156.544C6.98135 156.171 7.23202 155.691 7.23202 155.104C7.23202 154.656 7.09335 154.299 6.81602 154.032C6.54935 153.765 6.21869 153.563 5.82402 153.424C5.42935 153.275 4.88002 153.115 4.17602 152.944C3.33335 152.731 2.66135 152.528 2.16002 152.336C1.65869 152.133 1.22669 151.829 0.864019 151.424C0.512019 151.019 0.336019 150.469 0.336019 149.776C0.336019 149.211 0.485353 148.699 0.784019 148.24C1.08269 147.771 1.54135 147.397 2.16002 147.12C2.77869 146.843 3.54669 146.704 4.46402 146.704C5.10402 146.704 5.72802 146.795 6.33602 146.976C6.95469 147.147 7.48802 147.387 7.93602 147.696L7.53602 148.64C7.06669 148.331 6.56535 148.101 6.03202 147.952C5.49869 147.792 4.97602 147.712 4.46402 147.712C3.48269 147.712 2.74135 147.904 2.24002 148.288C1.74935 148.661 1.50402 149.147 1.50402 149.744C1.50402 150.192 1.63735 150.555 1.90402 150.832C2.18135 151.099 2.52269 151.307 2.92802 151.456C3.34402 151.595 3.89869 151.749 4.59202 151.92C5.41335 152.123 6.07469 152.325 6.57602 152.528C7.08802 152.72 7.52002 153.019 7.87202 153.424C8.22402 153.819 8.40002 154.357 8.40002 155.04C8.40002 155.605 8.24535 156.123 7.93602 156.592C7.63735 157.051 7.17335 157.419 6.54402 157.696C5.91469 157.963 5.14135 158.096 4.22402 158.096ZM15.1656 147.824H11.2296V146.8H20.2856V147.824H16.3496V158H15.1656V147.824ZM28.105 154.128V158H26.937V154.128L22.457 146.8H23.721L27.561 153.088L31.401 146.8H32.585L28.105 154.128ZM36.353 146.8H37.537V156.976H43.809V158H36.353V146.8ZM55.8609 156.976V158H47.9409V146.8H55.6209V147.824H49.1249V151.808H54.9169V152.816H49.1249V156.976H55.8609ZM60.8101 146.8H65.3701C66.5541 146.8 67.5995 147.04 68.5061 147.52C69.4128 147.989 70.1168 148.651 70.6181 149.504C71.1195 150.347 71.3701 151.312 71.3701 152.4C71.3701 153.488 71.1195 154.459 70.6181 155.312C70.1168 156.155 69.4128 156.816 68.5061 157.296C67.5995 157.765 66.5541 158 65.3701 158H60.8101V146.8ZM65.3061 156.976C66.2875 156.976 67.1461 156.784 67.8821 156.4C68.6181 156.005 69.1888 155.467 69.5941 154.784C69.9995 154.091 70.2021 153.296 70.2021 152.4C70.2021 151.504 69.9995 150.715 69.5941 150.032C69.1888 149.339 68.6181 148.8 67.8821 148.416C67.1461 148.021 66.2875 147.824 65.3061 147.824H61.9941V156.976H65.3061ZM87.4125 158.096C86.3032 158.096 85.3005 157.851 84.4045 157.36C83.5192 156.869 82.8205 156.192 82.3085 155.328C81.8072 154.453 81.5565 153.477 81.5565 152.4C81.5565 151.323 81.8072 150.352 82.3085 149.488C82.8205 148.613 83.5245 147.931 84.4205 147.44C85.3165 146.949 86.3192 146.704 87.4285 146.704C88.2605 146.704 89.0285 146.843 89.7325 147.12C90.4365 147.397 91.0339 147.803 91.5245 148.336L90.7725 149.088C89.8979 148.203 88.7939 147.76 87.4605 147.76C86.5752 147.76 85.7699 147.963 85.0445 148.368C84.3192 148.773 83.7485 149.328 83.3325 150.032C82.9272 150.736 82.7245 151.525 82.7245 152.4C82.7245 153.275 82.9272 154.064 83.3325 154.768C83.7485 155.472 84.3192 156.027 85.0445 156.432C85.7699 156.837 86.5752 157.04 87.4605 157.04C88.8045 157.04 89.9085 156.592 90.7725 155.696L91.5245 156.448C91.0339 156.981 90.4312 157.392 89.7165 157.68C89.0125 157.957 88.2445 158.096 87.4125 158.096ZM100.876 158.096C99.7669 158.096 98.7589 157.851 97.8523 157.36C96.9563 156.859 96.2523 156.176 95.7403 155.312C95.2389 154.448 94.9883 153.477 94.9883 152.4C94.9883 151.323 95.2389 150.352 95.7403 149.488C96.2523 148.624 96.9563 147.947 97.8523 147.456C98.7589 146.955 99.7669 146.704 100.876 146.704C101.986 146.704 102.983 146.949 103.868 147.44C104.764 147.931 105.468 148.613 105.98 149.488C106.492 150.352 106.748 151.323 106.748 152.4C106.748 153.477 106.492 154.453 105.98 155.328C105.468 156.192 104.764 156.869 103.868 157.36C102.983 157.851 101.986 158.096 100.876 158.096ZM100.876 157.04C101.762 157.04 102.562 156.843 103.276 156.448C103.991 156.043 104.551 155.488 104.956 154.784C105.362 154.069 105.564 153.275 105.564 152.4C105.564 151.525 105.362 150.736 104.956 150.032C104.551 149.317 103.991 148.763 103.276 148.368C102.562 147.963 101.762 147.76 100.876 147.76C99.9909 147.76 99.1856 147.963 98.4603 148.368C97.7456 148.763 97.1803 149.317 96.7643 150.032C96.3589 150.736 96.1562 151.525 96.1562 152.4C96.1562 153.275 96.3589 154.069 96.7643 154.784C97.1803 155.488 97.7456 156.043 98.4603 156.448C99.1856 156.843 99.9909 157.04 100.876 157.04ZM123.2 146.8V158H122.064V149.04L117.664 156.576H117.104L112.704 149.088V158H111.568V146.8H112.544L117.408 155.104L122.224 146.8H123.2ZM133.208 146.8C134.637 146.8 135.757 147.141 136.568 147.824C137.378 148.507 137.784 149.445 137.784 150.64C137.784 151.835 137.378 152.773 136.568 153.456C135.757 154.128 134.637 154.464 133.208 154.464H130.2V158H129.016V146.8H133.208ZM133.176 153.424C134.285 153.424 135.133 153.184 135.72 152.704C136.306 152.213 136.6 151.525 136.6 150.64C136.6 149.733 136.306 149.04 135.72 148.56C135.133 148.069 134.285 147.824 133.176 147.824H130.2V153.424H133.176ZM147.562 158.096C146.453 158.096 145.445 157.851 144.538 157.36C143.642 156.859 142.938 156.176 142.426 155.312C141.925 154.448 141.674 153.477 141.674 152.4C141.674 151.323 141.925 150.352 142.426 149.488C142.938 148.624 143.642 147.947 144.538 147.456C145.445 146.955 146.453 146.704 147.562 146.704C148.671 146.704 149.669 146.949 150.554 147.44C151.45 147.931 152.154 148.613 152.666 149.488C153.178 150.352 153.434 151.323 153.434 152.4C153.434 153.477 153.178 154.453 152.666 155.328C152.154 156.192 151.45 156.869 150.554 157.36C149.669 157.851 148.671 158.096 147.562 158.096ZM147.562 157.04C148.447 157.04 149.247 156.843 149.962 156.448C150.677 156.043 151.237 155.488 151.642 154.784C152.047 154.069 152.25 153.275 152.25 152.4C152.25 151.525 152.047 150.736 151.642 150.032C151.237 149.317 150.677 148.763 149.962 148.368C149.247 147.963 148.447 147.76 147.562 147.76C146.677 147.76 145.871 147.963 145.146 148.368C144.431 148.763 143.866 149.317 143.45 150.032C143.045 150.736 142.842 151.525 142.842 152.4C142.842 153.275 143.045 154.069 143.45 154.784C143.866 155.488 144.431 156.043 145.146 156.448C145.871 156.843 146.677 157.04 147.562 157.04ZM167.614 146.8V158H166.638L159.438 148.912V158H158.254V146.8H159.23L166.446 155.888V146.8H167.614ZM181.356 156.976V158H173.436V146.8H181.116V147.824H174.62V151.808H180.412V152.816H174.62V156.976H181.356ZM195.665 146.8V158H194.689L187.489 148.912V158H186.305V146.8H187.281L194.497 155.888V146.8H195.665ZM203.663 147.824H199.727V146.8H208.783V147.824H204.847V158H203.663V147.824ZM215.756 158.096C214.924 158.096 214.124 157.963 213.356 157.696C212.599 157.429 212.012 157.077 211.596 156.64L212.06 155.728C212.466 156.133 213.004 156.464 213.676 156.72C214.348 156.965 215.042 157.088 215.756 157.088C216.759 157.088 217.511 156.907 218.012 156.544C218.514 156.171 218.764 155.691 218.764 155.104C218.764 154.656 218.626 154.299 218.348 154.032C218.082 153.765 217.751 153.563 217.356 153.424C216.962 153.275 216.412 153.115 215.708 152.944C214.866 152.731 214.194 152.528 213.692 152.336C213.191 152.133 212.759 151.829 212.396 151.424C212.044 151.019 211.868 150.469 211.868 149.776C211.868 149.211 212.018 148.699 212.316 148.24C212.615 147.771 213.074 147.397 213.692 147.12C214.311 146.843 215.079 146.704 215.996 146.704C216.636 146.704 217.26 146.795 217.868 146.976C218.487 147.147 219.02 147.387 219.468 147.696L219.068 148.64C218.599 148.331 218.098 148.101 217.564 147.952C217.031 147.792 216.508 147.712 215.996 147.712C215.015 147.712 214.274 147.904 213.772 148.288C213.282 148.661 213.036 149.147 213.036 149.744C213.036 150.192 213.17 150.555 213.436 150.832C213.714 151.099 214.055 151.307 214.46 151.456C214.876 151.595 215.431 151.749 216.124 151.92C216.946 152.123 217.607 152.325 218.108 152.528C218.62 152.72 219.052 153.019 219.404 153.424C219.756 153.819 219.932 154.357 219.932 155.04C219.932 155.605 219.778 156.123 219.468 156.592C219.17 157.051 218.706 157.419 218.076 157.696C217.447 157.963 216.674 158.096 215.756 158.096Z"
              fill="#BDEBEA"/>
        <g clip-path="url(#clip0_1_3261)">
            <path d="M119.767 118.279C119.947 117.872 120.401 117.589 120.731 117.246C125.766 111.967 130.844 106.735 135.811 101.391C137.365 99.9558 138.566 98.1804 139.32 96.2036C140.074 94.2269 140.36 92.1026 140.156 89.9968C140 89.0951 139.796 88.2025 139.543 87.3229C138.189 88.6084 136.929 89.7783 135.661 90.9567C133.69 92.7908 131.727 94.6334 129.739 96.4461C128.566 97.6415 127.059 98.4531 125.415 98.7737C123.772 99.0943 122.07 98.9087 120.534 98.2416C118.98 97.6705 117.627 96.6553 116.644 95.3221C115.661 93.9889 115.092 92.3965 115.006 90.7425C114.96 90.5297 114.899 90.3206 114.822 90.1168C113.309 91.4024 111.861 92.5851 110.425 93.8021L80.5875 119.085C80.3818 119.261 80.159 119.479 79.9662 119.65H119.746L119.686 119.612C119.472 119.462 119.583 118.673 119.767 118.279Z"
                  fill="#FFCEBF"/>
            <path d="M78.1436 118.279C78.4974 117.818 78.9245 117.418 79.4077 117.096L120.7 82.0642C123.517 79.6731 126.321 77.2691 129.112 74.8522C129.457 74.6118 129.727 74.2791 129.892 73.8924C130.559 70.9831 130.654 67.9717 130.17 65.0263C129.742 65.3262 129.51 65.4548 129.313 65.6648C125.932 68.6901 122.568 71.7412 119.17 74.7494C118.044 75.8824 116.588 76.6292 115.012 76.8825C113.435 77.1359 111.818 76.8826 110.394 76.1592C108.941 75.4734 107.726 74.3709 106.901 72.992C106.077 71.6131 105.682 70.0201 105.766 68.4159V67.0275C105.145 67.4817 104.69 67.7859 104.266 68.1287C87.7396 81.3615 71.2159 94.5842 54.695 107.797C53.9493 108.393 53.058 109.721 52.081 108.431C51.104 107.141 52.5909 106.61 53.3408 106.01C70.953 91.8774 88.5738 77.7576 106.203 63.6507C109.074 61.3496 109.263 60.3854 107.394 56.7301L106.28 57.7757C103.225 60.6168 100.135 63.4193 97.1271 66.3075C95.8931 67.4978 94.3476 68.3148 92.6691 68.6641C90.9906 69.0135 89.2476 68.8809 87.6412 68.2818C86.0348 67.6827 84.6306 66.6415 83.5908 65.2784C82.5509 63.9153 81.9178 62.2858 81.7646 60.5782C81.1947 61.0067 80.7019 61.3196 80.2348 61.6838L54.095 81.9443C53.6442 82.3864 53.13 82.7591 52.5695 83.0498C52.1464 83.1777 51.6921 83.155 51.2839 82.9856V119.671H78.0922C77.9925 119.451 77.9453 119.21 77.9542 118.969C77.9631 118.727 78.028 118.491 78.1436 118.279Z"
                  fill="#FFCEBF"/>
            <path d="M150.565 1.82096C149.837 4.20782 149.13 6.59897 148.491 9.01154C147.902 10.7164 147.97 12.5802 148.684 14.2371C149.397 15.8941 150.704 17.2246 152.348 17.9676C157.376 20.6107 163.043 21.798 168.709 21.3958V2.22806C168.646 1.80781 168.669 1.37914 168.777 0.968207C168.897 0.73576 169.049 0.520916 169.227 0.329712H150.548C150.835 0.663958 150.737 1.25103 150.565 1.82096Z"
                  fill="#FF6196"/>
            <path d="M113.051 42.9976C112.962 45.137 112.214 47.1966 110.908 48.894C106.242 54.9179 100.883 60.3719 94.9418 65.1435C93.9837 66.0304 92.7694 66.591 91.473 66.745C90.1766 66.8989 88.8647 66.6383 87.7255 66.0005C86.5917 65.5161 85.6357 64.6925 84.9889 63.6428C84.342 62.5932 84.0361 61.369 84.1131 60.1384C84.2503 58.627 84.8779 57.202 85.9 56.0803C92.5435 49.7455 99.7415 44.019 107.407 38.9695C107.91 38.5758 108.523 38.3499 109.16 38.3237C109.798 38.2976 110.427 38.4725 110.96 38.8238C111.66 39.2585 112.226 39.8786 112.595 40.6153C112.964 41.352 113.122 42.1766 113.051 42.9976Z"
                  fill="#FF87AF"/>
            <path d="M107.913 68.97C107.813 68.0228 107.935 67.0654 108.268 66.1731C108.601 65.2809 109.137 64.478 109.832 63.8277C116.337 57.8281 123.316 52.3638 130.701 47.4883C130.924 47.3468 131.13 47.2054 131.374 47.0597C132.019 46.594 132.801 46.356 133.596 46.3832C134.391 46.4103 135.155 46.7011 135.767 47.2097C136.359 47.7112 136.777 48.3865 136.964 49.1396C137.15 49.8928 137.094 50.6854 136.804 51.4049C135.869 54.5168 134.145 57.3337 131.798 59.5811C127.033 64.2758 122.175 68.8762 117.229 73.3795C116.484 74.1456 115.505 74.6422 114.447 74.7911C113.389 74.9401 112.311 74.7329 111.384 74.2022C110.409 73.6958 109.579 72.9499 108.972 72.0347C108.365 71.1194 108 70.0648 107.913 68.97Z"
                  fill="#FF87AF"/>
            <path d="M138.834 71.8015C137.635 73.0871 136.4 74.3126 135.248 75.6282C134.901 76.1367 134.614 76.683 134.391 77.2566C135.025 77.4451 135.766 77.9422 136.28 77.7665C138.899 76.888 141.453 75.8339 144.328 74.724C143.702 76.1638 143.231 77.4922 142.567 78.7092C139.831 83.3078 136.404 87.4587 132.407 91.0164C130.887 92.4819 129.308 93.8832 127.671 95.2201C126.805 95.9395 125.762 96.4157 124.651 96.6001C123.54 96.7844 122.399 96.6702 121.347 96.2692C120.294 95.8681 119.367 95.1947 118.66 94.3176C117.953 93.4406 117.491 92.3916 117.323 91.2778C117.254 90.6585 117.309 90.0317 117.484 89.4337C117.659 88.8357 117.951 88.2784 118.343 87.7939C124.174 81.4614 130.838 75.9503 138.153 71.4115C138.242 71.3771 138.336 71.3582 138.432 71.3558L138.834 71.8015Z"
                  fill="#FF87AF"/>
            <path d="M148.672 54.7335L156.004 22.1659L161.147 23.37L158.494 31.4305C156.017 38.9296 153.51 46.4287 151.093 53.9364C150.622 55.3248 150.005 55.5819 148.672 54.7335Z"
                  fill="#FF6196"/>
            <path d="M140.386 73.8885C141.161 70.9274 141.933 68.1892 142.584 65.421C143.219 62.7364 144.426 60.2207 146.124 58.0461C147.165 56.6791 148.335 57.2234 149.53 57.519C150.636 57.789 150.915 58.5989 150.962 59.6616C151.136 62.6005 150.241 65.5031 148.442 67.8335C146.3 70.4887 143.532 72.5695 140.386 73.8885Z"
                  fill="#FF6196"/>
            <path d="M170.944 3.83936C171.008 2.88498 170.983 1.92674 170.871 0.976845C170.783 0.711516 170.607 0.483621 170.374 0.329779C170.184 0.175101 169.961 0.0652523 169.723 0.00838844C169.585 -0.0173228 169.393 0.124089 169.208 0.325493C169.03 0.516698 168.878 0.731542 168.758 0.96399C168.65 1.37492 168.627 1.80359 168.69 2.22384V21.3873C163.023 21.7895 157.357 20.6022 152.329 17.9591C150.685 17.2161 149.378 15.8856 148.665 14.2286C147.951 12.5717 147.882 10.7079 148.472 9.00304C149.111 6.59046 149.818 4.19932 150.546 1.81246C150.718 1.24253 150.816 0.655454 150.546 0.321208C150.396 0.158494 150.189 0.0602123 149.968 0.0469556C149.685 0.0500088 149.411 0.146413 149.188 0.321208C148.867 0.512888 148.612 0.796593 148.455 1.1354C147.598 3.70652 146.844 6.30336 146.188 8.9259C145.941 9.95936 145.874 11.0279 145.991 12.0841C146.157 13.9952 146.868 15.8186 148.039 17.3377C149.21 18.8569 150.793 20.0081 152.599 20.6545C153.409 20.993 153.884 21.3273 153.657 22.3943C153.344 23.7484 153.04 25.1026 152.732 26.461C150.632 35.6656 148.544 44.8745 146.467 54.0877C146.408 54.4985 146.228 54.8822 145.948 55.189C144.579 56.2771 143.429 57.6148 142.559 59.1314C141.449 61.1327 140.682 63.3052 140.287 65.5592C140.212 66.2782 139.952 66.9655 139.533 67.5548C139.114 68.144 138.55 68.6153 137.896 68.9231C136.109 69.8273 134.468 70.9971 132.484 72.2141C132.616 69.8282 132.591 67.4361 132.407 65.0535C132.256 64.3206 132.288 63.5618 132.5 62.8442C132.713 62.1267 133.099 61.4725 133.624 60.9397C136.238 58.3506 138.1 55.1015 139.015 51.538C139.288 50.712 139.363 49.8333 139.233 48.9729C139.104 48.1126 138.774 47.2948 138.27 46.5856C137.766 45.8764 137.102 45.2957 136.332 44.8905C135.563 44.4853 134.708 44.267 133.838 44.2531C132.43 44.2374 131.047 44.6304 129.857 45.3844C125.768 48.1767 121.75 51.0715 117.807 54.0663C115.463 55.8318 113.256 57.7858 110.985 59.637C110.887 59.5319 110.802 59.4154 110.732 59.2899C110.689 58.9744 110.604 58.6661 110.48 58.3729C108.581 55.4418 109.897 53.3121 111.958 51.1223C114.105 48.8714 115.292 45.8727 115.266 42.7619C115.333 41.1769 114.836 39.6194 113.865 38.3653C113.347 37.7286 112.71 37.2001 111.988 36.8097C110.963 36.2487 109.791 36.0145 108.629 36.1386C107.467 36.2627 106.371 36.7391 105.487 37.5039L104.292 38.361C101.562 40.315 98.7981 42.2177 96.1713 44.3089C92.3364 47.3705 88.5841 50.5341 84.9183 53.7963C83.2042 55.309 81.953 57.3744 80.1746 58.78C70.9014 66.1034 61.5297 73.294 52.1922 80.5317C51.8711 80.7232 51.5759 80.9551 51.3137 81.2216C51.2867 81.2606 51.2638 81.3023 51.2452 81.3459C51.0481 81.8044 50.8809 82.5629 51.1123 82.8414C51.1691 82.9019 51.2376 82.95 51.3137 82.9828C51.7219 83.1523 52.1762 83.175 52.5993 83.0471C53.1598 82.7563 53.674 82.3837 54.1248 81.9415L80.2646 61.6811C80.7317 61.3168 81.2245 60.9869 81.7944 60.5755C81.9476 62.2831 82.5807 63.9125 83.6206 65.2757C84.6604 66.6388 86.0646 67.68 87.671 68.2791C89.2774 68.8782 91.0204 69.0107 92.6989 68.6614C94.3774 68.312 95.9229 67.4951 97.1569 66.3048C100.157 63.4166 103.255 60.6141 106.31 57.773L107.424 56.7274C109.293 60.3827 109.104 61.3468 106.233 63.648C88.5893 77.7663 70.9585 91.8875 53.3406 106.012C52.5907 106.611 51.108 107.156 52.0808 108.433C53.0535 109.71 53.9491 108.394 54.6948 107.798C71.2242 94.5972 87.7423 81.3787 104.249 68.1432C104.677 67.8003 105.127 67.4961 105.749 67.0419V68.4303C105.665 70.0345 106.06 71.6275 106.884 73.0064C107.708 74.3853 108.924 75.4879 110.377 76.1736C111.801 76.897 113.417 77.1503 114.994 76.897C116.571 76.6436 118.027 75.8968 119.153 74.7638C122.551 71.7642 125.915 68.7045 129.296 65.6792C129.51 65.4863 129.759 65.3406 130.153 65.0407C130.637 67.9861 130.542 70.9975 129.874 73.9068C129.71 74.2936 129.439 74.6262 129.095 74.8667C126.301 77.2807 123.497 79.6847 120.683 82.0787L79.4075 117.115C78.9243 117.437 78.4972 117.836 78.1434 118.297C78.0305 118.507 77.9672 118.741 77.9582 118.979C77.9493 119.217 77.9951 119.455 78.092 119.673C78.2856 119.818 78.5094 119.917 78.7468 119.964C78.9842 120.011 79.2291 120.004 79.4633 119.943C79.648 119.889 79.8181 119.794 79.9603 119.664C80.1746 119.493 80.3889 119.274 80.5817 119.099L110.42 93.8158C111.855 92.5988 113.304 91.399 114.816 90.1306C114.893 90.3343 114.954 90.5434 115 90.7562C115.086 92.4102 115.656 94.0027 116.638 95.3358C117.621 96.669 118.974 97.6842 120.528 98.2553C122.064 98.9225 123.766 99.108 125.41 98.7874C127.053 98.4669 128.561 97.6552 129.733 96.4598C131.721 94.6472 133.684 92.8045 135.655 90.9705C136.941 89.792 138.183 88.6093 139.538 87.3366C139.79 88.2162 139.994 89.1089 140.15 90.0106C140.347 92.1094 140.058 94.2253 139.304 96.1941C138.551 98.1628 137.353 99.9313 135.805 101.362C130.839 106.71 125.761 111.942 120.726 117.217C120.396 117.56 119.941 117.843 119.761 118.25C119.581 118.657 119.466 119.454 119.68 119.626L119.74 119.664C120.189 119.883 120.695 119.959 121.188 119.883C121.327 119.854 121.45 119.777 121.535 119.664C121.655 119.54 121.771 119.386 121.887 119.27C125.966 115.053 130.067 110.858 134.117 106.611C135.751 104.955 137.288 103.205 138.719 101.371C140.585 99.3049 141.822 96.7492 142.285 94.0042C142.749 91.2591 142.418 88.439 141.333 85.8754C141.216 85.3037 141.33 84.7092 141.65 84.2213C141.929 83.7413 142.237 83.2742 142.554 82.8114C143.569 81.494 144.414 80.0544 145.07 78.5262C146.337 74.7758 148.282 71.2898 150.808 68.2417C151.969 66.7695 152.768 65.0448 153.14 63.207C153.512 61.3692 153.447 59.4696 152.95 57.6616C152.775 56.9741 152.775 56.2535 152.95 55.5661C155.119 48.8512 157.351 42.1577 159.562 35.4599L162.519 26.4867L163.432 23.7142C165.377 23.7142 167.211 23.6756 169.037 23.7142C170.554 23.757 171.017 23.0457 171 21.5715C170.91 15.658 170.944 9.74866 170.944 3.83936ZM94.9371 65.1435C93.9791 66.0304 92.7647 66.591 91.4683 66.745C90.1719 66.8989 88.86 66.6383 87.7208 66.0006C86.587 65.5162 85.631 64.6925 84.9842 63.6429C84.3373 62.5932 84.0314 61.369 84.1084 60.1384C84.2457 58.6271 84.8732 57.202 85.8953 56.0803C92.5388 49.7455 99.7368 44.019 107.403 38.9695C107.821 38.6737 108.297 38.4693 108.8 38.3696C109.137 38.3074 109.483 38.3074 109.82 38.3696C110.223 38.4482 110.609 38.6023 110.955 38.8238C111.656 39.2588 112.222 39.8796 112.592 40.6171C112.961 41.3547 113.118 42.1802 113.046 43.0019C112.958 45.1413 112.209 47.2009 110.904 48.8983C106.237 54.9207 100.878 60.3733 94.9371 65.1435ZM117.22 73.4097C116.475 74.1758 115.497 74.6724 114.438 74.8213C113.38 74.9703 112.303 74.7631 111.375 74.2324C110.399 73.7249 109.568 72.977 108.961 72.0593C108.353 71.1416 107.99 70.0844 107.904 68.9874C107.805 68.0401 107.926 67.0828 108.259 66.1905C108.593 65.2982 109.128 64.4954 109.824 63.8451C116.329 57.8454 123.308 52.3811 130.693 47.5056C130.916 47.3642 131.121 47.2228 131.366 47.0771C132.011 46.6114 132.792 46.3734 133.587 46.4005C134.383 46.4277 135.146 46.7185 135.758 47.2271C136.35 47.7285 136.769 48.4038 136.955 49.157C137.141 49.9101 137.085 50.7028 136.795 51.4223C135.861 54.5342 134.136 57.351 131.79 59.5985C127.063 64.3208 122.148 68.8674 117.229 73.3925L117.22 73.4097ZM142.55 78.7276C139.818 83.319 136.397 87.4638 132.407 91.0176C130.887 92.4831 129.309 93.8844 127.672 95.2214C126.805 95.9408 125.763 96.417 124.651 96.6013C123.54 96.7856 122.4 96.6714 121.347 96.2704C120.294 95.8694 119.367 95.1959 118.66 94.3189C117.953 93.4419 117.492 92.3928 117.323 91.279C117.254 90.6597 117.309 90.0329 117.484 89.435C117.659 88.837 117.951 88.2796 118.343 87.7951C124.174 81.4627 130.839 75.9515 138.153 71.4128C138.242 71.3783 138.337 71.3594 138.432 71.3571L138.86 71.7856C137.661 73.0712 136.426 74.2967 135.274 75.6123C134.927 76.1208 134.64 76.6671 134.417 77.2407C135.051 77.4292 135.792 77.9263 136.307 77.7506C138.376 77.0564 140.412 76.2508 142.593 75.3937L144.354 74.7081C143.694 76.1651 143.223 77.4935 142.559 78.7105L142.55 78.7276ZM148.434 67.8646C146.835 69.8996 144.832 71.5806 142.55 72.8012C141.844 73.1954 141.12 73.564 140.377 73.9068C141.14 70.9885 141.903 68.2846 142.55 65.5506L142.576 65.4392C143.211 62.7546 144.418 60.2389 146.115 58.0644C147.157 56.6974 148.327 57.2416 149.522 57.5373C150.628 57.8073 150.906 58.6172 150.953 59.6799C151.129 62.6162 150.237 65.5171 148.442 67.8475L148.434 67.8646ZM158.461 31.4404C155.984 38.9395 153.477 46.4386 151.06 53.9463C150.606 55.3561 149.989 55.6132 148.656 54.7648L155.011 26.5124L155.988 22.1758L161.131 23.3799L160.098 26.5124L158.461 31.4404Z"
                  fill="black"/>
        </g>
        <defs>
            <clipPath id="clip0_1_3261">
                <rect width="120" height="120" fill="white" transform="translate(51)"/>
            </clipPath>
        </defs>
    </g>

    <g id="link-chain">
        <path d="M11.2867 8.71333C10.6041 8.03103 9.67846 7.64774 8.71334 7.64774C7.74821 7.64774 6.82259 8.03103 6.14 8.71333L3.56584 11.2867C2.88324 11.9693 2.49976 12.8951 2.49976 13.8604C2.49976 14.8258 2.88324 15.7516 3.56584 16.4342C4.24844 17.1168 5.17424 17.5002 6.13959 17.5002C7.10493 17.5002 8.03074 17.1168 8.71334 16.4342L10 15.1475"
              stroke="white" stroke-width="1.66667" stroke-linecap="round" stroke-linejoin="round"/>
        <path d="M8.71338 11.2867C9.39597 11.969 10.3216 12.3523 11.2867 12.3523C12.2518 12.3523 13.1775 11.969 13.86 11.2867L16.4342 8.71334C17.1168 8.03074 17.5003 7.10493 17.5003 6.13959C17.5003 5.17424 17.1168 4.24844 16.4342 3.56584C15.7516 2.88324 14.8258 2.49976 13.8605 2.49976C12.8951 2.49976 11.9693 2.88324 11.2867 3.56584L10 4.8525"
              stroke="white" stroke-width="1.66667" stroke-linecap="round" stroke-linejoin="round"/>

    </g>
    <g id="link-github">
        <g clip-path="url(#clip0_2_5968)">
            <path fill-rule="evenodd" clip-rule="evenodd"
                  d="M10 0C4.475 0 0 4.475 0 10C0 14.425 2.8625 18.1625 6.8375 19.4875C7.3375 19.575 7.525 19.275 7.525 19.0125C7.525 18.775 7.5125 17.9875 7.5125 17.15C5 17.6125 4.35 16.5375 4.15 15.975C4.0375 15.6875 3.55 14.8 3.125 14.5625C2.775 14.375 2.275 13.9125 3.1125 13.9C3.9 13.8875 4.4625 14.625 4.65 14.925C5.55 16.4375 6.9875 16.0125 7.5625 15.75C7.65 15.1 7.9125 14.6625 8.2 14.4125C5.975 14.1625 3.65 13.3 3.65 9.475C3.65 8.3875 4.0375 7.4875 4.675 6.7875C4.575 6.5375 4.225 5.5125 4.775 4.1375C4.775 4.1375 5.6125 3.875 7.525 5.1625C8.325 4.9375 9.175 4.825 10.025 4.825C10.875 4.825 11.725 4.9375 12.525 5.1625C14.4375 3.8625 15.275 4.1375 15.275 4.1375C15.825 5.5125 15.475 6.5375 15.375 6.7875C16.0125 7.4875 16.4 8.375 16.4 9.475C16.4 13.3125 14.0625 14.1625 11.8375 14.4125C12.2 14.725 12.5125 15.325 12.5125 16.2625C12.5125 17.6 12.5 18.675 12.5 19.0125C12.5 19.275 12.6875 19.5875 13.1875 19.4875C15.1726 18.8173 16.8976 17.5414 18.1197 15.8395C19.3418 14.1375 19.9994 12.0952 20 10C20 4.475 15.525 0 10 0Z"
                  fill="white"/>
        </g>
        <defs>
            <clipPath id="clip0_2_5968">
                <rect width="20" height="20" fill="white"/>
            </clipPath>
        </defs>
    </g>

    <g id="mail">
        <path d="M21.1429 1.5H2.85715C2.22597 1.5 1.71429 2.01167 1.71429 2.64286V16.3571C1.71429 16.9883 2.22597 17.5 2.85715 17.5H21.1429C21.774 17.5 22.2857 16.9883 22.2857 16.3571V2.64286C22.2857 2.01167 21.774 1.5 21.1429 1.5Z"
              stroke="white" stroke-width="2" stroke-linecap="round"/>
        <path d="M1.71429 3.21436L12 9.50007L22.2857 3.21436" stroke="white" stroke-width="2" stroke-linecap="round"/>

    </g>
</svg>
